<?xml version="1.0" encoding="UTF-8" standalone="no"?>
<!DOCTYPE svg PUBLIC "-//W3C//DTD SVG 1.1//EN" "http://www.w3.org/Graphics/SVG/1.1/DTD/svg11.dtd">
<svg width="100%" height="100%" viewBox="0 0 512 512" version="1.1" xmlns="http://www.w3.org/2000/svg" xmlns:xlink="http://www.w3.org/1999/xlink" xml:space="preserve" xmlns:serif="http://www.serif.com/" style="fill-rule:evenodd;clip-rule:evenodd;stroke-linecap:round;stroke-linejoin:round;">
    <g id="Artboard1" transform="matrix(0.747625,0,0,2.02201,-3.65213e-15,-8.71015e-14)">
        <rect x="0" y="0" width="684.835" height="253.213" style="fill:none;"/>
        <g transform="matrix(1.33757,0,0,0.494557,-88.8348,-256.888)">
            <g id="goblin" transform="matrix(1.32317,0,0,1.32317,68.3914,543.727)">
                <g>
                    <path d="M269.592,167.972L264.68,168.743L260.551,175.027L259.508,176.928L266.301,185.15L266.522,189.193L259.865,192.622L262.908,203.992L274.071,201.835L271.721,192.016L269.886,184.939L269.727,177.702L269.592,167.972Z" style="fill:rgb(105,69,105);"/>
                    <path d="M260.532,165.317L267.924,165.082C267.957,168.715 268.017,176.383 268.05,180.45C268.083,183.817 268.767,187.133 270.1,190.4C270.7,191.9 271.133,193.45 271.4,195.05C271.733,197.15 272.183,199.233 272.75,201.3L263.8,203.1L261.4,193.05C261.4,193.05 259.905,181.165 259.758,176.286L260.532,165.317ZM270.458,163.138L257.953,163.04C257.953,163.04 257.515,175.422 257.388,176.273C257.784,180.711 259.05,194.8 259.05,194.9L260.178,200.9C260.611,202 261.056,205.143 261.056,205.143C261.056,205.143 263.812,205.126 264.8,204.95C266.267,204.983 267.733,204.85 269.2,204.55C271.2,204.283 273.117,203.883 274.95,203.35C275.183,203.25 275.4,203.117 275.6,202.95C275.167,199.717 274.4,196.517 273.3,193.35C271.7,188.917 270.8,184.317 270.6,179.55C270.433,175.883 270.433,172.217 270.6,168.55L270.458,163.138Z" style="fill-rule:nonzero;"/>
                </g>
                <g>
                    <path d="M282.818,82.542L282.946,86.555L277.214,95.887L279.938,117.013L273.279,140.178L281.139,142.707L286.237,140.418L294.275,131.445L302.44,120.441L312.604,107.592L325.541,95.289L338.85,90.247L351.709,83.922L353.374,77.81L350.297,71.824L329.164,78.457L306.585,81.129L285.008,81.072L282.818,82.542Z" style="fill:rgb(102,204,102);"/>
                    <g>
                        <path d="M277.929,94.701L277.394,96.536L277.78,104.58C277.813,104.713 278.817,107.147 278.851,107.314C279.884,111.914 280.433,113.564 279.466,118.03C279.433,118.197 278.913,120.831 278.879,120.964C277.613,126.598 276.779,131.296 274.779,136.829L276.35,139.55L284.85,125.55C283.983,124.35 283.65,122.95 283.85,121.35C284.117,119.383 284.45,117.367 284.85,115.3L284.95,101.8C284.683,98.533 285.35,95.483 286.95,92.65C287.25,92.083 287.633,91.633 288.1,91.3C293.367,87.8 299.15,86.05 305.45,86.05C306.083,86.05 306.7,85.967 307.3,85.8C312.667,84.567 317.983,83.3 323.25,82C324.55,81.6 325.65,81 326.55,80.2C326.074,79.495 325.242,79.61 323.922,79.689C320.591,79.89 316.026,80.649 312.112,80.816C309.812,80.916 306.388,81.308 304.121,81.408L283.732,81.437C283.732,82.337 283.582,83.472 283.515,84.372C283.448,85.372 283.267,85.718 282.801,86.551C282.034,88.018 281.889,88.173 281.622,89.473L280.358,90.259L279.293,93.915L277.929,94.701Z" style="fill:rgb(95,163,95);"/>
                        <path d="M324.484,96.122L309.55,97.622L304,104.529C304,104.529 301.326,107.648 299.354,110.901C298.873,111.694 298.214,113.253 297.9,113.9C297.9,115.633 297.25,117.117 295.95,118.35L295.45,119.45L294.7,122.1C297.4,120.333 300.05,118.533 302.65,116.7C303.183,116.267 303.867,116.15 304.7,116.35C304.797,116.197 305.523,116.366 305.523,116.366L316.121,103.294L324.484,96.122Z" style="fill:rgb(95,163,95);"/>
                    </g>
                    <path id="ear-right" serif:id="ear right" d="M293.95,97.4L295,97.45C296.3,97.783 297.617,98.133 298.95,98.5C299.617,98.667 300.267,98.75 300.9,98.75C301.533,98.75 302.033,98.4 302.4,97.7L302.05,96.7C299.55,95.533 296.983,95.017 294.35,95.15C293.55,95.283 292.833,95.533 292.2,95.9C289.967,97.233 287.833,98.717 285.8,100.35C285.4,100.717 285.117,101.2 284.95,101.8L284.85,115.3L285.2,117.25L286.3,117.65L287.15,117.3L287.4,112.3L287.95,111.3L287.35,110.35L287.15,107.2L287.15,105.75L288.3,103.75L291.15,98.35L293.95,97.4ZM340.25,87.9C335.017,90.167 329.65,92.083 324.15,93.65C322.65,94.05 321.15,94.267 319.65,94.3C315.783,94.367 312.133,95.067 308.7,96.4L308.3,96.65L307.3,97.45L308,98.1C308.067,98.167 308.083,98.217 308.05,98.25C307.983,98.45 307.867,98.633 307.7,98.8C306.433,99.8 305.383,100.95 304.55,102.25C300.15,108.917 295.983,115.733 292.05,122.7L293.75,123.05L295.45,119.45L295.95,118.35L297.9,113.9C299.5,110.6 301.617,107.583 304.25,104.85C305.183,103.85 306.333,103.117 307.7,102.65C308.367,102.383 308.983,102 309.55,101.5C310.417,100.733 310.85,99.75 310.85,98.55L321.7,96.8C319.6,98.767 317.533,100.783 315.5,102.85C311.4,106.95 307.8,111.45 304.7,116.35C304,117.05 303.3,117.733 302.6,118.4C301.767,119.233 300.95,120.067 300.15,120.9C297.25,123.9 294.783,127.233 292.75,130.9C290.65,134.7 287.717,137.8 283.95,140.2C282.583,141.067 281.283,141.467 280.05,141.4C278.75,141.3 277.517,140.683 276.35,139.55L271.748,136.763C273.748,131.23 270.753,110.382 271.52,108.915C271.986,108.082 275.039,93.825 275.106,92.825C275.172,91.925 283.128,82.726 284.9,82.5L303.55,82.35C305.817,82.25 308.1,82.15 310.4,82.05C315.867,81.817 321.25,81.2 326.55,80.2C334.55,78.733 342.233,76.267 349.6,72.8C351.467,74.9 352.283,77.383 352.05,80.25C351.983,80.85 351.8,81.4 351.5,81.9C350.833,83.1 349.8,84 348.4,84.6C345.667,85.7 342.95,86.8 340.25,87.9ZM272.883,91.971C273.183,92.804 268.918,108.615 268.518,109.415C267.851,110.781 272.105,132.271 270.605,138.604C270.605,138.604 271.836,140.089 274.7,141.75C276.367,142.717 278.083,143.483 279.85,144.05C279.917,144.083 279.983,144.1 280.05,144.1C280.617,144.233 281.167,144.2 281.7,144C284.3,143.467 286.583,142.217 288.55,140.25C289.45,139.35 290.267,138.4 291,137.4C296.733,129.533 302.717,121.767 308.95,114.1C312.783,109.4 317,105.2 321.6,101.5C326.833,97.233 332.633,93.883 339,91.45C342.7,90.083 346.317,88.583 349.85,86.95C351.183,86.35 352.233,85.4 353,84.1C354.4,81.767 354.8,79.217 354.2,76.45C353.633,73.95 352.4,71.917 350.5,70.35C338.633,75.25 326.333,78.233 313.6,79.3C303.967,80.133 294.367,80.183 284.8,79.45C282.464,79.885 271.966,90.991 272.883,91.971Z" style="fill-rule:nonzero;"/>
                </g>
                <g>
                    <path d="M273.279,140.178L275.235,132.699L279.492,119.136L278.763,109.283L277.413,95.245L281.939,89.301L283.746,83.327L282.758,80.645L276.61,72.944L269.577,69.742L265.326,71.4L258.682,77.746L249.111,83.312L227.571,84.698L216.817,82.797L193.643,79.653L177.108,79.79L158.379,83.984L152.693,88.523L152.692,100.241L155.362,110.285L155.885,123.654L152.875,134.29L149.11,143.634L143.854,155.185L143.202,160.348L147.948,172.457L150.373,186.139L156.108,194.879L167.962,202.917L182.248,209.219L202.458,214.442L232.543,222.529L248.289,227.281L258.156,226.806L266.787,219.052L267.79,212.183L262.738,203.388L260.052,192.688L266.906,189.035L266.554,185.054L259.813,176.342L264.787,167.779L271.437,167.119L281.165,165.421L282.51,159.838L280.244,152.745L273.138,140.667L273.279,140.178Z" style="fill:rgb(102,204,102);"/>
                    <g>
                        <path d="M261.243,199.468L259.711,194.158C253.278,195.025 244.577,195.955 238.21,197.055C231.843,198.321 226.366,199.638 220.066,201.138C219.399,201.271 219.167,202.083 218.5,202.25C217.667,202.917 217.367,203.3 217.6,203.4C217.8,203.5 220.483,203.75 225.65,204.15C232.083,203.483 238.467,202.6 244.8,201.5C247.633,201.133 250.467,200.9 253.3,200.8C255.567,201.033 257.783,200.967 259.95,200.6L261.243,199.468Z" style="fill:rgb(95,163,95);"/>
                        <g transform="matrix(1.18727,0,0,1.18727,-102.58,-67.0213)">
                            <path d="M273.59,189.879L271.784,188.602C270.801,188.181 270.001,187.577 269.383,186.791C268.878,186.146 268.415,185.472 267.993,184.77C267.713,184.293 267.404,183.843 267.067,183.422L265.235,182.776L264.411,170.873L270.015,169.735L271.699,170.03L271.952,169.567C274.254,169.174 276.613,169.104 279.027,169.356C279.869,169.441 280.698,169.665 281.512,170.03C283.028,170.676 284.488,171.125 285.892,171.378C286.341,171.462 286.734,171.265 287.071,170.788L287.113,169.988C287.081,169.988 287.113,168.694 287.113,168.694L281.891,159.628C281.245,158.786 280.585,157.972 279.912,157.185C279.49,156.624 279.125,156.048 278.817,155.459C278.059,153.915 276.935,152.904 275.447,152.427L278.311,161.986L269.046,156.722L274.732,163.755C273.917,164.232 273.117,164.724 272.331,165.229C269.776,166.942 267.109,168.149 264.33,168.851L264.203,167.672L259.823,169.777C259.851,170.17 259.922,170.578 260.034,170.999C260.09,171.251 260.076,171.532 259.992,171.841C258.644,176.923 259.922,181.317 263.824,185.022C263.712,185.781 263.852,186.511 264.245,187.212C266.997,192.098 271.236,195.102 276.964,196.225C282.129,197.179 287.889,198.984 292.858,200.977C297.069,201.118 305.74,200.616 305.74,200.616L308.892,198.271C308.892,198.271 296.182,195.674 293.454,194.451C291.18,193.384 285.769,192.137 283.354,191.491C278.918,190.34 273.59,189.879 273.59,189.879Z" style="fill:rgb(95,163,95);"/>
                        </g>
                        <g transform="matrix(1.18727,0,0,1.18727,-102.58,-67.0213)">
                            <path d="M219.988,171.151L219.858,169.525C220.166,167.588 220.489,165.65 220.826,163.713C221.669,158.716 222.89,153.844 224.49,149.1L231.659,125.596C231.659,125.596 230.579,124.306 229.923,124.847C227.497,126.845 219.161,126.324 216.753,128.357C215.602,129.34 215.049,131.561 214.347,132.881C214.234,133.105 215.257,138.023 215.06,138.22L215.041,141.233C215.293,144.545 216.292,147.654 216.938,150.967C217.022,151.472 217.34,158.209 217.368,158.715C217.537,162.421 216.091,162.979 215.782,166.713C215.642,168.313 215.42,169.917 214.451,171.854L211.135,178.981L207.486,186.767C206.588,188.845 206.14,191.119 207.291,193.253C208.358,195.302 210.148,197.626 210.766,199.928C212.113,204.954 212.784,209.472 212.868,213.459C215.004,216.436 218.532,221.267 220.52,222.257C220.887,222.44 220.729,221.627 221.079,221.577C220.377,219.696 219.675,217.759 218.973,215.765C216.39,208.438 214.706,200.899 213.92,193.15C213.864,192.645 213.906,192.182 214.046,191.761C215.281,188.055 216.699,184.405 218.299,180.811C219.058,181.681 219.773,182.566 220.447,183.464C220.953,184.166 221.304,184.952 221.5,185.823C221.809,187.367 222.637,188.518 223.985,189.276C223.901,190.259 223.971,191.283 224.195,192.35C224.476,193.698 224.602,195.088 224.574,196.519C224.574,197.474 224.701,198.443 224.953,199.425C225.262,200.633 225.417,201.868 225.417,203.131C225.417,203.974 225.557,204.788 225.838,205.574C226.231,206.613 226.919,207.315 227.901,207.68C229.417,208.241 230.821,208.129 232.113,207.343L230.598,204.69C230.935,199.945 230.333,200.071 229.575,195.213C229.041,191.929 229.145,188.02 227.909,184.959C227.432,183.78 226.227,179.181 225.609,178.114L219.988,171.151Z" style="fill:rgb(95,163,95);"/>
                        </g>
                        <g transform="matrix(1.18727,0,0,1.18727,-102.58,-67.0213)">
                            <path d="M266.731,152.493L268.859,144.163C268.859,144.163 275.636,143.789 277.21,143.703L281.402,133.624C280.588,133.848 279.305,132.671 278.632,132.053L275.425,127.793C265.515,125.772 255.659,124.153 245.243,123.282C243.109,122.974 234.38,123.985 233.453,124.434L229.645,126.72C235.035,127.169 247.947,128.169 253.085,128.085C256.145,128.029 259.206,128.141 262.266,128.422C264.596,128.703 266.884,129.348 269.13,130.359C271.264,131.342 273.384,131.398 275.49,130.528L275.789,130.375L276.204,130.904C276.204,130.904 276.142,131.411 276.121,131.37L274.184,137.897C273.145,138.515 272.078,138.726 270.983,138.529C267.755,137.743 264.582,136.887 261.466,135.96C258.518,135.118 255.486,134.43 252.369,133.897C246.361,133.139 233.038,133.642 226.946,133.866L225.925,135.679L247.928,138.163C247.928,138.163 230.921,141.423 230.302,143.246C230.049,144.257 230.26,145.211 230.934,146.11C233.039,149.001 235.145,151.907 237.251,154.827C239.356,157.747 241.953,160.133 245.042,161.986C247.428,163.446 249.828,163.46 252.243,162.029L252.787,160.789L266.731,152.493" style="fill:rgb(95,163,95);"/>
                        </g>
                        <g transform="matrix(1.18727,0,0,1.18727,-102.58,-67.0213)">
                            <path d="M319.619,136.177C319.9,135.756 320.906,135.495 321.159,135.018C321.524,134.4 322.66,132.266 322.997,131.648C323.586,130.525 324.408,127.497 324.97,126.346C325.307,125.672 324.748,125.654 324.131,125.474C323.878,125.586 323.667,125.741 323.499,125.937C323.078,126.499 322.671,127.074 322.278,127.664C320.874,129.657 319.498,131.665 318.151,133.686L306.864,134.655L307.412,134.486L303.2,134.907L295.283,142.993L296.041,140.593L296.378,138.607C296.378,138.607 297.924,136.223 297.811,131.815C297.811,131.815 297.465,131.43 298.357,130.401C300.098,129.84 301.684,129.012 303.116,127.917C303.958,127.299 304.773,126.639 305.559,125.937C307.131,124.477 308.872,123.242 310.781,122.231C312.662,121.249 314.374,120.126 315.919,118.862L315.118,117.472L312.577,115.792C309.208,116.017 308.396,116.852 306.178,119.492C304.999,120.895 304.293,122.097 302.637,122.827C301.458,123.36 299.922,124.821 298.799,125.439L291.681,127.785C291.934,129.273 292.251,131.201 292.503,132.718C292.56,133.139 292.574,133.56 292.546,133.981C292.489,134.992 292.251,135.946 291.83,136.845C291.268,137.968 290.693,138.796 290.103,139.329C288.11,139.077 287.183,140.003 287.323,142.109C287.464,144.495 288.404,146.531 290.145,148.215C291.1,149.17 291.788,149.31 292.209,148.636L294.916,150.222L316.021,174.734L322.036,156.765L321.682,151.035L321.11,144.133L320.418,139.513L319.107,137.333L319.619,136.177Z" style="fill:rgb(95,163,95);"/>
                        </g>
                    </g>
                    <g id="eye-right" serif:id="eye right">
                        <path d="M257.85,100.468L255.819,105.098L248.856,110.79L249.878,113.59L252.583,114.981L267.293,113.657L268.781,112.182L270.232,108.227L269.17,97.924L259.77,99.479L257.85,100.468Z" style="fill:rgb(255,255,0);"/>
                        <path d="M259.5,99.386L256.508,101.786C254.875,105.886 249.311,112.36 249.211,112.394C249.678,113.694 252.599,114.674 252.799,114.674C253.466,113.941 254.45,112.767 255.05,112C255.983,110.833 257.017,109.733 258.15,108.7C258.883,108 259.617,107.283 260.35,106.55C262.617,104.05 265.736,102.744 269.653,102.813L269.421,97.791L261.035,98.922L259.5,99.386Z" style="fill:rgb(214,214,8);"/>
                        <g>
                            <path d="M261,110.3C261,109.867 260.85,109.5 260.55,109.2C260.25,108.9 259.9,108.75 259.5,108.75C259.1,108.75 258.75,108.9 258.45,109.2C258.15,109.5 258,109.867 258,110.3C258,110.733 258.15,111.1 258.45,111.4C258.75,111.7 259.1,111.85 259.5,111.85C259.9,111.85 260.25,111.7 260.55,111.4C260.85,111.1 261,110.733 261,110.3Z" style="fill:white;"/>
                            <path d="M257.4,106.15C257.4,106.483 257.533,106.783 257.8,107.05C258.033,107.283 258.317,107.4 258.65,107.4C258.983,107.4 259.283,107.283 259.55,107.05C259.783,106.783 259.9,106.483 259.9,106.15C259.9,105.817 259.783,105.533 259.55,105.3C259.283,105.033 258.983,104.9 258.65,104.9C258.317,104.9 258.033,105.033 257.8,105.3C257.533,105.533 257.4,105.817 257.4,106.15Z" style="fill:white;"/>
                        </g>
                    </g>
                    <g id="eye-left" serif:id="eye left">
                        <path d="M193.073,116.169L205.472,116.032L216.17,107.275L202.408,101.118L191.975,99.563L175.432,102.555L179.344,109.919L184.463,113.358L193.073,116.169Z" style="fill:rgb(255,255,0);"/>
                        <path d="M193.556,98.389C193.256,98.355 175.337,102.493 175.337,102.493C175.303,102.893 176.868,107.138 177.101,107.471C181.701,106.405 187.867,105.8 192.6,106.3C193.267,106.333 193.933,106.45 194.6,106.65C197.1,107.05 199.65,107.467 202.25,107.9C205.517,108.2 209.476,109.566 212.342,111L215.806,106.8L204.264,102.172L193.556,98.389Z" style="fill:rgb(214,214,8);"/>
                        <g>
                            <path d="M187.25,106.7C186.85,106.7 186.517,106.917 186.25,107.35C185.983,107.75 185.85,108.233 185.85,108.8C185.85,109.367 185.983,109.867 186.25,110.3C186.517,110.7 186.85,110.9 187.25,110.9C187.65,110.9 187.983,110.7 188.25,110.3C188.517,109.867 188.65,109.367 188.65,108.8C188.65,108.233 188.517,107.75 188.25,107.35C187.983,106.917 187.65,106.7 187.25,106.7Z" style="fill:white;"/>
                            <path d="M188.4,103.9C188.4,103.567 188.283,103.283 188.05,103.05C187.783,102.783 187.483,102.65 187.15,102.65C186.817,102.65 186.533,102.783 186.3,103.05C186.033,103.283 185.9,103.567 185.9,103.9C185.9,104.233 186.033,104.533 186.3,104.8C186.533,105.033 186.817,105.15 187.15,105.15C187.483,105.15 187.783,105.033 188.05,104.8C188.283,104.533 188.4,104.233 188.4,103.9Z" style="fill:white;"/>
                        </g>
                    </g>
                    <g id="mouth">
                        <path d="M191.721,159.781L185.783,157.582L184.937,169.865L181.214,174.488L182.779,179.09L188.265,183.619L199.398,186.988L211.95,187.473L233.269,184.083L258.256,177.186L260.416,173.738L242.91,172.01L225.445,169.902L191.721,159.781Z" style="fill:rgb(255,255,204);fill-rule:nonzero;"/>
                        <path d="M229.702,170.777C228.069,170.777 221.691,168.941 220.091,168.574C219.839,168.508 209.517,165.054 209.276,165.044C208.304,165.006 208.085,165.394 208.35,165.9C208.717,166.6 209.217,167.117 209.85,167.45C212.583,168.783 215.433,169.917 218.4,170.85C221.333,171.783 228.467,173.317 239.8,175.45C246.1,176.617 249.5,177.417 250,177.85L250.234,177.944L250.022,178.136L248.9,178.4L251.007,178.487L258.805,176.697L260.464,173.47C250.397,172.803 239.735,171.777 229.702,170.777Z" style="fill:rgb(225,225,184);fill-rule:nonzero;"/>
                        <g>
                            <path d="M198.85,183.25L200.6,182.5L201.45,184.55L211.75,184.35L212.2,183.35C212.267,182.983 212.1,182.717 211.7,182.55C209.5,182.117 207.217,181.95 204.85,182.05L204.25,181.35L203.35,181.15L202.35,180.15L201.5,178.25L197.35,179.45L192.25,177.4L191.2,174.15L189.65,174.5L189.45,179.7L198.85,183.25Z" style="fill:white;"/>
                            <path d="M191.7,165.75C191.8,165.85 191.917,165.933 192.05,166C193.017,166.467 194.083,166.883 195.25,167.25C196.617,167.75 197.367,168.683 197.5,170.05L198.25,170.85L199.15,172.9C201.817,173.5 204.2,172.867 206.3,171L207.25,173.55L208.85,173.7C209.283,174.2 209.667,174.567 210,174.8C210.3,175 210.633,175.017 211,174.85C213.3,174.683 215.5,174.4 217.6,174L217.75,172.4C217.55,172.233 217.35,172.183 217.15,172.25C215.117,171.817 213.167,171.917 211.3,172.55C210.933,171.417 210.117,170.767 208.85,170.6L208.3,168.4C208.167,168.333 208.05,168.283 207.95,168.25C206.883,168.017 205.917,168.283 205.05,169.05C203.883,170.017 202.5,170.45 200.9,170.35C200.4,169.45 199.85,168.6 199.25,167.8C197.65,165.633 195.633,164.25 193.2,163.65L191.5,164.35L191.7,165.75Z" style="fill:white;"/>
                        </g>
                    </g>
                    <g transform="matrix(1.18727,0,0,1.18727,-102.58,-67.0213)">
                        <path d="M309.433,229.073C311.118,231.123 312.213,233.341 312.718,235.727C312.914,236.626 312.914,237.552 312.718,238.507C312.437,240.023 312.058,241.09 311.581,241.707C310.991,242.971 310.219,243.953 309.265,244.655C308.703,245.048 308.029,245.526 307.243,246.087C306.654,246.508 305.994,246.985 305.264,247.519C303.579,248.726 301.488,249.175 298.989,248.867C298.006,248.838 297.024,248.81 296.041,248.782C293.149,248.445 290.37,247.786 287.703,246.803C287.029,246.55 286.369,246.312 285.723,246.087C277.946,243.364 270.001,241.258 261.887,239.77C256.272,238.647 250.727,237.243 245.252,235.559C237.503,233.256 230.091,230 223.016,225.788C217.991,222.756 214.383,218.573 212.193,213.239C211.912,212.565 211.744,211.877 211.688,211.175C211.295,205.391 209.807,199.959 207.224,194.877C205.3,192.771 205.3,192.771 205.665,189.739C205.75,189.037 205.932,188.364 206.213,187.718C208.627,182.44 211.042,177.161 213.456,171.883C213.428,171.855 213.414,171.827 213.414,171.799C213.218,170.816 213.372,169.918 213.878,169.104C214.074,168.795 214.214,168.444 214.299,168.051C214.383,167.686 214.467,167.349 214.551,167.04C214.832,165.973 215.141,164.934 215.478,163.924C215.899,162.744 216.152,161.509 216.236,160.218C216.545,155.81 216.292,151.416 215.478,147.036C215.169,145.295 214.72,143.639 214.13,142.067C213.456,140.13 213.456,138.333 214.13,136.676C214.018,135.75 213.906,134.837 213.793,133.939C213.597,132.226 213.849,130.598 214.551,129.054C215.029,128.043 215.773,127.313 216.783,126.864L224.027,125.348C228.631,123.186 233.559,122.063 238.809,121.979C243.919,121.894 249.07,122.133 254.264,122.695C258.139,123.284 262.013,123.888 265.888,124.505C269.144,125.151 272.429,125.741 275.742,126.274C278.241,126.751 280.712,126.976 283.154,126.948C288.769,126.864 294.174,125.783 299.368,123.705C300.491,123.256 301.544,122.666 302.526,121.936C302.835,121.74 303.074,121.501 303.242,121.221C303.579,120.603 304.014,120.069 304.548,119.62C307.861,116.728 312.083,111.834 313.385,111.906C315.328,112.014 324.425,121.473 324.425,121.473L326.278,123.368C326.328,124.877 326.363,125.937 326.363,125.937C326.363,126.695 326.335,127.453 326.278,128.211C326.222,129.054 325.998,129.826 325.605,130.528C324.959,131.763 324.524,132.928 324.299,134.023L323.667,134.444L321.857,136.971L321.141,137.224L320.93,137.855L322.193,146.025C322.222,146.138 322.25,146.264 322.278,146.404C323.148,150.279 323.176,154.097 322.362,157.859C322.334,158 322.306,158.126 322.278,158.238C321.211,162.983 319.835,167.686 318.151,172.346C318.151,172.346 317.997,173.759 317.772,175.842C319.625,177.947 321.127,180.208 322.278,182.622C323.345,184.84 324.131,187.184 324.636,189.655C325.113,191.929 324.917,194.021 324.046,195.93C323.681,196.716 323.092,197.179 322.278,197.32L322.236,197.32L314.318,198.415L312.086,198.709L310.654,198.878L307.538,202.247L307.454,203.342L306.148,205.111C308.619,206.936 310.486,209.224 311.749,211.975C312.451,213.547 312.423,215.063 311.665,216.523L306.569,219.05L308.591,227.515C309.029,228.326 309.138,228.528 309.433,229.073ZM239.44,124.59C240.367,124.14 241.897,124.07 244.031,124.379C254.447,125.249 264.61,126.695 274.521,128.717C274.521,129.026 274.549,129.32 274.605,129.601C274.718,130.247 275.012,130.556 275.49,130.528L276.121,131.37C276.177,131.482 276.234,131.595 276.29,131.707L276.332,131.749C276.388,131.861 276.444,131.988 276.5,132.128C276.613,132.353 276.753,132.563 276.921,132.76C277.034,132.956 277.174,133.125 277.343,133.265C278.016,133.883 278.76,134.079 279.575,133.855L276.458,142.951C272.893,143.148 269.467,142.642 266.183,141.435C264.217,140.705 262.266,139.947 260.329,139.161C256.988,137.785 253.492,136.746 249.842,136.045C244.368,135.146 238.865,134.669 233.334,134.613L226.891,134.571L224.532,134.613C223.774,133.574 222.96,133.448 222.09,134.234C222.09,134.542 222.16,134.823 222.3,135.076C223.086,136.536 224.364,137.139 226.133,136.887L231.86,137.055L242.009,138.234C241.42,138.234 240.844,138.262 240.283,138.319C236.717,138.656 233.236,139.329 229.839,140.34L229.375,140.551L228.238,142.151L230.302,143.246L232.66,143.92C233.839,145.885 235.173,147.78 236.661,149.605C237.503,150.672 238.5,151.528 239.651,152.174C243.497,154.336 247.737,155.697 252.369,156.259C255.261,156.371 257.956,155.782 260.455,154.49L251.064,160.765L251.19,161.776L252.243,162.029C252.58,161.944 252.917,161.86 253.254,161.776C254.349,161.411 255.43,161.004 256.496,160.555C260.736,158.617 264.54,156.062 267.909,152.89C268.471,152.356 268.822,151.697 268.962,150.911C269.243,149.479 269.664,148.131 270.225,146.868L270.647,146.657L270.057,144.93L278.606,144.762L279.196,144.13L278.522,143.204L278.817,142.656L279.532,142.572L282.859,133.265L279.111,131.623L279.196,130.57L277.595,128.885L291.745,128.211L294.02,128.296L294.314,128.717L295.199,129.096L294.862,130.149L296.715,131.623C296.827,136.03 295.185,139.526 291.788,142.109L292.082,142.993L293.261,142.993L296.041,140.593C296.35,140.284 296.645,139.961 296.925,139.624C299.34,136.817 299.817,133.742 298.357,130.401L298.02,129.77L298.568,126.401C299.691,125.783 300.842,125.207 302.021,124.674C303.678,123.944 305.095,122.877 306.275,121.473C308.493,118.834 311.286,117.402 314.655,117.178L315.118,117.472L313.981,116.378C314.459,116.714 314.936,117.065 315.413,117.43C317.968,119.143 320.256,121.094 322.278,123.284C322.923,123.986 323.541,124.716 324.131,125.474C324.383,126.176 324.341,126.864 324.004,127.538C323.443,128.689 322.867,129.826 322.278,130.949C321.941,131.566 321.59,132.184 321.225,132.802C320.972,133.279 320.705,133.672 320.425,133.981C320.116,134.374 319.821,134.781 319.54,135.202L318.572,135.665C316.887,135.974 315.189,136.101 313.476,136.045C311.005,136.409 308.591,136.901 306.232,137.518C304.773,137.94 303.593,138.782 302.695,140.045C300.477,143.077 297.894,145.801 294.946,148.215L293.514,147.289L292.209,148.636C292.321,148.805 292.447,148.973 292.588,149.142C295.873,153.1 299.242,157.003 302.695,160.849C308.843,167.756 314.543,175.014 319.793,182.622C320.832,184.138 321.66,185.752 322.278,187.465C322.502,188.055 322.699,188.672 322.867,189.318C323.316,191.059 323.274,192.813 322.741,194.582C322.601,194.61 322.446,194.652 322.278,194.709C319.807,195.298 317.322,195.832 314.824,196.309C309.967,197.151 305.208,196.772 300.547,195.172C296.195,193.74 291.788,192.42 287.323,191.213C282.045,189.95 276.767,189.079 271.489,188.602L269.173,188.139L267.067,183.422C266.786,182.44 266.533,181.471 266.309,180.516C265.579,177.456 265.242,174.396 265.298,171.336L270.183,170.493L270.015,169.735L269.888,169.272L263.487,169.314L262.898,174.494L262.35,174.494C262.322,178.425 263.178,182.131 264.919,185.612C265.846,187.465 267.165,188.855 268.878,189.781C269.973,190.343 271.194,190.68 272.542,190.792C276.978,191.269 281.414,192.084 285.85,193.235C288.264,193.88 290.608,194.737 292.882,195.804C297.515,197.881 302.372,199.004 307.454,199.173C306.555,199.341 305.671,199.524 304.801,199.72C300.589,200.478 296.378,200.787 292.167,200.647C285.765,200.45 279.532,199.425 273.468,197.572C269.594,196.393 265.733,195.242 261.887,194.119C254.503,192.013 247.484,188.981 240.83,185.022L240.451,182.159L249.169,183.464L249.59,182.411C247.316,181.092 244.831,180.32 242.136,180.095C240.058,179.927 237.995,180.053 235.945,180.474L236.156,182.117L238.261,182.496C238.402,183.141 238.5,183.815 238.556,184.517C238.64,185.668 238.963,186.637 239.525,187.423C239.609,187.563 239.735,187.69 239.904,187.802C240.072,187.858 240.255,187.914 240.451,187.97L240.83,188.939C240.521,190.427 240.423,191.901 240.535,193.361C240.62,194.428 240.423,195.467 239.946,196.477C239.356,197.657 238.893,198.864 238.556,200.099C238.275,201.054 238.149,202.05 238.177,203.089C238.205,204.1 238.444,205.069 238.893,205.995C240.325,209.083 242.697,211.245 246.01,212.48C250.193,214.053 254.531,214.979 259.023,215.26C267.249,215.428 275.349,214.628 283.323,212.86C290.566,211.315 297.697,209.252 304.716,206.669C306.092,208.269 307.468,209.869 308.843,211.47C309.573,212.284 309.938,213.182 309.938,214.165C309.938,214.502 309.924,214.839 309.896,215.176C305.994,217.478 301.825,218.783 297.389,219.092C296.097,219.177 294.82,219.345 293.556,219.598C292.096,219.85 290.636,220.103 289.176,220.356C283.954,221.479 278.803,222.742 273.721,224.146L270.899,224.693C268.822,225.03 266.716,225.171 264.582,225.115C260.932,224.89 257.465,224.104 254.18,222.756L253.464,223.388L253.843,224.483C255.584,225.016 257.339,225.55 259.107,226.083C262.898,227.206 266.674,227.445 270.436,226.799C270.997,226.659 271.559,226.532 272.121,226.42C277.427,225.157 282.761,223.992 288.124,222.925C293.486,221.998 298.877,221.17 304.295,220.44C304.379,220.412 304.464,220.426 304.548,220.482C304.576,220.482 304.59,220.524 304.59,220.608L305.348,225.409C305.713,226.336 306.176,227.192 306.738,227.978C308.17,229.972 309.391,232.119 310.402,234.422C311.3,236.471 311.132,238.366 309.896,240.107C308.099,242.718 305.783,244.683 302.948,246.003C302.891,246.031 302.835,246.059 302.779,246.087C302.274,246.284 301.754,246.382 301.221,246.382C298.694,246.775 296.195,246.677 293.725,246.087C292.967,245.919 292.209,245.694 291.451,245.413C286.341,243.701 281.119,242.185 275.784,240.865C271.377,239.686 266.969,238.577 262.561,237.538C258.406,236.527 254.25,235.531 250.095,234.548C244.929,233.341 239.932,231.712 235.103,229.663C230.105,227.557 225.431,224.862 221.079,221.577L213.667,213.365C213.583,209.378 212.867,204.872 211.519,199.846C210.902,197.544 210.059,195.368 208.992,193.319C207.841,191.185 207.715,189.079 208.613,187.002L213.625,176.726L213.962,175.968L216.236,169.693C219.465,172.136 222.104,175.084 224.153,178.537C224.771,179.604 225.318,180.727 225.796,181.906C227.031,184.966 227.915,188.139 228.449,191.424C229.207,196.281 229.417,201.082 229.081,205.827L232.113,207.343L234.176,208.395L234.934,207.216C232.464,205.026 231.186,202.163 231.102,198.625C231.046,195.116 230.681,191.578 230.007,188.013C229.53,185.373 228.814,182.833 227.859,180.39C226.09,175.926 223.283,172.206 219.437,169.23L217.205,167.756C217.682,166.156 217.991,164.555 218.131,162.955C218.44,159.221 218.51,155.501 218.342,151.795C218.314,151.29 218.257,150.784 218.173,150.279C217.527,146.966 217.078,143.653 216.825,140.34L217.878,138.361C218.075,138.164 218.229,137.954 218.342,137.729C219.043,136.409 219.97,135.258 221.121,134.276C224.181,131.693 227.256,129.138 230.344,126.611L239.44,124.59ZM241.925,215.555L241.167,215.85L240.872,216.271C243.287,218.517 246.052,220.215 249.169,221.366C249.955,221.675 250.755,221.984 251.569,222.293L251.695,221.24L241.925,215.555ZM243.399,189.908C244.831,190.581 246.305,191.199 247.821,191.761C252.482,193.389 257.17,194.863 261.887,196.183C266.407,197.811 270.955,199.229 275.532,200.436C276.879,200.745 278.241,200.899 279.617,200.899C288.067,201.742 296.532,202.443 305.011,203.005L303.537,204.984L297.431,206.753C291.394,208.522 285.274,210.08 279.069,211.428C274.212,212.438 269.271,213.182 264.245,213.66C257.676,214.053 251.471,212.775 245.631,209.827C244.845,209.434 244.101,208.985 243.399,208.48C242.501,207.862 241.771,207.104 241.209,206.206C240.9,205.672 240.62,205.139 240.367,204.605L242.81,201.068C243.371,201.264 243.947,201.461 244.536,201.657C244.705,201.685 244.887,201.728 245.084,201.784C245.336,201.756 245.603,201.728 245.884,201.699C246.108,201.587 246.333,201.489 246.558,201.405C246.642,201.32 246.726,201.25 246.81,201.194L247.568,200.31L250.053,204.605C252.383,204.914 254.728,205.237 257.086,205.574C262.533,206.444 267.979,207.272 273.426,208.059C275.841,208.283 278.255,208.297 280.67,208.101C286.06,207.792 291.451,207.272 296.841,206.542L299.326,206.079L296.967,206.248C297.304,206.5 296.111,206.571 293.388,206.458C291.31,206.542 289.247,206.641 287.197,206.753C285.428,206.922 283.702,206.95 282.017,206.837C276.065,206.192 270.239,205.335 264.54,204.268C260.188,203.51 255.795,203.159 251.359,203.216C251.274,202.822 251.19,202.443 251.106,202.078C251.022,201.713 250.895,201.377 250.727,201.068C250.362,200.31 249.955,199.594 249.506,198.92C249.309,198.667 249.084,198.443 248.832,198.246C248.691,198.162 248.551,198.092 248.411,198.036C248.242,197.951 248.088,197.881 247.947,197.825L244.283,199.51L243.399,189.908ZM314.487,139.245L318.656,138.445C318.965,140.607 319.231,142.797 319.456,145.015C319.568,145.913 319.709,146.812 319.877,147.71C320.411,150.798 320.804,153.887 321.056,156.975C321.084,157.256 321.042,157.522 320.93,157.775C318.74,162.885 317.013,168.107 315.75,173.441L301.347,156.512C301.768,156.792 302.218,157.031 302.695,157.228C303.537,157.593 304.337,157.986 305.095,158.407C306.218,159.053 307.426,159.572 308.717,159.965C308.914,159.993 309.11,160.035 309.307,160.091C309.531,160.007 309.756,159.937 309.981,159.881L310.36,158.954L302.358,154.743L312.128,154.238C312.213,154.181 312.283,154.125 312.339,154.069C314.697,151.262 315.68,148.005 315.287,144.299C315.09,142.614 314.824,140.93 314.487,139.245ZM281.891,159.628L281.091,159.207L280.038,159.965L286.397,168.809L286.481,169.104C286.565,169.384 286.692,169.651 286.86,169.904C286.888,169.96 286.973,169.988 287.113,169.988L288.039,169.946C288.011,169.581 287.969,169.216 287.913,168.851C287.408,164.864 285.4,161.79 281.891,159.628ZM257.844,143.077L267.235,146.826L264.498,149.521L258.602,153.732C256.131,153.816 253.605,153.69 251.022,153.353C245.35,153.016 240.62,150.798 236.829,146.699C236.633,146.418 236.45,146.152 236.282,145.899C236.085,145.59 235.903,145.295 235.734,145.015C235.566,144.706 235.454,144.411 235.398,144.13C235.313,143.765 235.285,143.414 235.313,143.077L245.084,141.435C245.364,141.407 245.645,141.393 245.926,141.393L246.347,141.351C246.768,141.323 247.189,141.295 247.61,141.267C251.148,141.042 254.559,141.646 257.844,143.077ZM313.013,143.077C313.237,145.38 313.069,147.64 312.507,149.858C312.423,150.195 312.297,150.518 312.128,150.826C311.96,151.079 311.777,151.346 311.581,151.626L299.621,152.679L299.115,152.679C298.217,152.511 297.571,151.879 297.178,150.784C297.262,150.756 297.332,150.714 297.389,150.658C300.308,148.44 302.456,145.604 303.832,142.151L305.39,140.761L312.802,139.54L313.013,143.077Z"/>
                    </g>
                </g>
                <g>
                    <path d="M128.924,77.461L114.009,70.763L85.833,65.16L66.498,62.958L42.237,59.867L37.454,64.494L33.06,58.456L3.654,56.817L1.185,58.456L2.192,62.227L6.654,66.881L22.991,74.106L35.494,82.16L60.34,100.862L72.453,110.903L80.321,119.036L85.595,128.817L92.29,138.657L98.944,143.256L107.857,147.3L124.195,151.988L130.119,136.462L132.978,126.252L135.406,111.255L135.284,98.197L132.066,85.103L128.924,77.461Z" style="fill:rgb(102,204,102);"/>
                    <g>
                        <g transform="matrix(1.18727,0,0,1.18727,-102.58,-67.0213)">
                            <path d="M149.268,150.9C153.255,155.364 156.46,159.976 159.183,165.339C160.025,166.995 160.711,169.009 161.834,170.553L169.363,176.43L171.128,177.665L190.161,184.69L193.145,179.016L192.021,178.453C191.122,177.947 190.168,177.821 189.157,178.074C188.006,178.326 186.869,178.369 185.746,178.2C182.321,177.442 179.513,175.687 177.323,172.936C174.852,172.499 170.638,168.886 169.74,169.812L165.363,167.082C164.829,166.408 164.324,165.791 163.847,165.229C160.393,161.102 157.193,156.792 154.245,152.3C153.318,150.868 152.911,149.282 153.024,147.541C153.024,147.541 151.904,146.878 149.898,145.69C149.898,145.69 146.29,142.76 142.285,140.803L129.861,134.444L128.621,134.867L139.925,143.643L148.582,150.461L149.268,150.9Z" style="fill:rgb(95,163,95);"/>
                        </g>
                        <g transform="matrix(1.18727,0,0,1.18727,-102.58,-67.0213)">
                            <path d="M178.845,160.78L177.311,160.307C175.402,159.914 174.094,159.25 172.185,158.857C169.883,158.296 166.349,157.033 165.194,156.752C164.524,156.588 163.024,155.644 162.603,155.083C160.434,152.322 157.63,147.584 156.128,144.396C155.705,143.499 156.306,143.255 156.772,143.035C157.951,143.625 158.807,144.509 159.341,145.688C159.509,146.053 159.734,146.404 160.014,146.741C161.081,147.836 162.064,148.987 162.962,150.195C163.412,150.84 164.029,151.304 164.815,151.584C169.027,153.1 173.412,154.393 177.933,155.292C177.933,155.292 179.399,155.329 179.435,153.895C179.491,151.677 179.076,149.625 178.43,147.547C178.122,146.509 177.284,145.734 176.975,144.696C176.357,142.702 176.577,142.469 174.892,141.879C174.106,141.571 173.491,140.368 173.238,141.014C171.132,139.329 168.999,137.645 166.837,135.96C165.854,135.174 164.815,134.514 163.72,133.981C161.306,132.802 159.004,131.426 156.814,129.854C154.062,127.945 151.185,126.218 148.18,124.674C143.576,122.316 139.042,119.817 134.578,117.178L132.809,115.072L132.851,115.03C134.367,114.553 135.855,114.707 137.315,115.493C138.298,115.998 139.295,116.476 140.305,116.925L141.572,118.232C146.457,120.815 144.115,119.111 149.478,120.964C153.773,122.423 157.479,124.43 161.831,126.114C166.042,127.827 170.5,129.666 174.543,131.743L187.682,139.751C189.956,141.323 191.825,143.456 193.145,145.815C194.998,149.156 194.982,152.767 193.241,156.024C192.904,156.67 191.001,160.021 190.805,160.694C189.766,164.457 189.642,165.673 188.407,169.379C186.245,169.182 183.169,168.754 181.541,167.238C181.26,166.957 179.995,164.044 179.883,163.707L178.845,160.78Z" style="fill:rgb(95,163,95);"/>
                        </g>
                    </g>
                    <path id="ear-left" serif:id="ear left" d="M98.45,68.7C104.55,70.067 110.633,71.5 116.7,73C120.633,73.9 131.158,78.923 134.191,81.657C135.124,82.523 141.456,103.087 141.189,108.753C140.889,115.053 140.488,127.77 139.288,133.937C137.988,140.57 136.008,146.624 133.208,152.658L122.8,150.15L104.2,144.7C96.969,141.347 92.71,138.072 90.85,134.4C89.517,132.567 88.35,130.667 87.35,128.7C84.117,122.333 80.133,116.5 75.4,111.2C71.854,107.229 67.164,104.66 63.75,101.95L51.6,92.6C45.4,87.633 39.05,82.867 32.55,78.3C28.717,75.633 24.583,73.5 20.15,71.9C15.517,70.2 11.167,68.017 7.1,65.35C5.9,64.583 4.783,63.717 3.75,62.75C2.283,61.483 1.917,59.933 2.65,58.1C12.45,58.2 22.233,58.783 32,59.85L33.55,61.65L35.5,67.75C35.733,67.75 35.95,67.717 36.15,67.65C36.45,67.517 36.717,67.333 36.95,67.1C38.283,65.867 39.633,64.65 41,63.45C41.4,63.083 41.783,62.617 42.15,62.05C42.383,61.683 42.617,61.383 42.85,61.15C42.883,61.117 42.917,61.1 42.95,61.1C46.283,61.6 49.633,62.1 53,62.6C53.1,62.633 53.2,62.65 53.3,62.65C59.3,63.75 65.317,64.633 71.35,65.3C74.283,65.367 77.233,65.45 80.2,65.55C86.367,66.217 92.45,67.267 98.45,68.7ZM112.05,68.85C105.583,67.083 99.05,65.683 92.45,64.65C88.817,64.217 85.183,63.783 81.55,63.35C72.183,61.95 62.767,60.683 53.3,59.55C49.567,59.083 45.817,58.633 42.05,58.2C42.017,58.267 41.983,58.317 41.95,58.35C41.85,58.383 41.733,58.4 41.6,58.4L41.6,58.5L41.2,58.5L37.4,62.25L35.05,58.3L34.85,57.3L32.65,56.95C27.283,56.783 21.817,56.417 16.25,55.85C11.917,55.683 7.6,55.533 3.3,55.4C2.567,55.767 1.883,56.217 1.25,56.75C0.217,57.517 -0.167,58.45 0.1,59.55C0.333,60.417 0.667,61.267 1.1,62.1C2.267,64.4 3.983,66.283 6.25,67.75C9.683,69.95 13.283,71.717 17.05,73.05C19.717,74.083 22.267,75.417 24.7,77.05C34.433,83.483 43.967,90.217 53.3,97.25C56.033,99.317 58.75,101.4 61.45,103.5C65.129,106.528 68.664,109.438 72.75,112.8C78.717,120.133 84.017,127.867 88.65,136C91.85,140.727 94.284,143.271 102.5,146.5L121.65,152.8C128.735,155.851 132.331,156.272 133.846,155.864C134.723,155.628 137.657,144.559 139.657,138.626C141.823,132.259 141.317,126.106 142.184,119.573C142.684,115.706 144.039,104.506 144.005,100.773C143.872,91.306 140.659,80.908 131.825,77.527L116.2,69.95C116.2,69.95 113.879,69.335 112.05,68.85ZM88.75,83.1C93.75,85.133 98.65,87.383 103.45,89.85L119.05,99.1C121.75,100.967 123.883,103.3 125.45,106.1C127.65,110.067 127.717,113.983 125.65,117.85C125.25,118.617 124.933,119.4 124.7,120.2C123.467,124.667 122.117,129.1 120.65,133.5C118.083,133.267 115.833,132.25 113.9,130.45C113.567,130.117 113.333,129.75 113.2,129.35C111.733,124.917 111.067,120.383 111.2,115.75C111.267,113.117 110.917,110.567 110.15,108.1C109.783,106.867 109.417,105.633 109.05,104.4C108.317,102.033 106.95,100.5 104.95,99.8C104.017,99.433 103.4,99.633 103.1,100.4L102.9,101C103.2,101.267 103.467,101.567 103.7,101.9C106.933,106.433 108.583,111.55 108.65,117.25L108.4,121.7C106.133,121.233 103.867,120.767 101.6,120.3C98.867,119.633 96.183,118.883 93.55,118.05C92.683,117.783 92,117.317 91.5,116.65C88.2,112.45 85.55,107.833 83.55,102.8C82.583,101.133 81.1,100.033 79.1,99.5L78.45,100.55L81,103.6L84.4,111.55C84.6,114.083 85.7,116.2 87.7,117.9C88.5,118.567 89.367,119.117 90.3,119.55C95.133,121.783 100.15,123.533 105.35,124.8C105.95,124.967 106.5,125.25 107,125.65C107.367,125.917 107.667,126.283 107.9,126.75C108.1,127.15 108.2,127.583 108.2,128.05C108.167,128.65 108.083,129.25 107.95,129.85L108.9,130.75L109.85,130.75C110.783,131.917 111.85,132.9 113.05,133.7C113.45,133.933 113.867,134.183 114.3,134.45C114.633,134.617 114.967,134.783 115.3,134.95C115.6,135.05 115.917,135.117 116.25,135.15C116.85,135.383 117.467,135.567 118.1,135.7L120.1,135.7C120.433,135.633 120.767,135.583 121.1,135.55C121.4,135.45 121.717,135.35 122.05,135.25C122.383,134.617 122.7,134 123,133.4C123.2,133 123.383,132.6 123.55,132.2C123.717,131.767 123.867,131.333 124,130.9C124.133,130.5 124.25,130.1 124.35,129.7C124.45,129.267 124.533,128.833 124.6,128.4C124.667,127.967 124.717,127.55 124.75,127.15C124.783,126.717 124.783,126.283 124.75,125.85C124.717,124.95 124.65,124.05 124.55,123.15C125.217,122.683 125.817,122.15 126.35,121.55C128.217,119.65 129.267,117.333 129.5,114.6C130.067,107.833 127.567,102.433 122,98.4C116.733,94.633 111.183,91.333 105.35,88.5C100.883,86.367 96.383,84.333 91.85,82.4C87.317,80.367 82.75,78.483 78.15,76.75C73.45,75.05 68.733,73.4 64,71.8L55.15,69.55L55.05,69.5C55.05,69.533 55.067,69.567 55.1,69.6C60.9,72.667 66.983,75.3 73.35,77.5C78.45,79.233 83.583,81.1 88.75,83.1Z" style="fill-rule:nonzero;"/>
                    <g>
                        <path d="M106.905,138.687L100.447,132.059L96.812,131.388L81.394,144.394L77.665,153.106L87.573,156.781L95.867,151.377L103.967,143.127L106.905,138.687Z" style="fill:rgb(255,255,0);"/>
                        <path d="M100.35,139.45C99.017,141.183 97.7,142.967 96.4,144.8C96.133,145.2 95.783,145.5 95.35,145.7C94.017,146.467 92.733,147.35 91.5,148.35C90.367,149.217 89.15,150.017 87.85,150.75C86.017,151.717 84.115,153.497 83.115,155.064C85.315,156.431 87.077,157.575 89.143,156.042C94.077,152.308 100.521,147.518 104.421,142.985C105.087,142.185 106.55,139.392 107.083,138.492C107.25,138.225 104.591,134.786 104.658,134.453L103.2,135.25C102.933,135.383 102.75,135.55 102.65,135.75C101.983,137.05 101.217,138.283 100.35,139.45Z" style="fill:rgb(214,214,8);"/>
                        <path id="ring-bottom" serif:id="ring bottom" d="M94.8,134.15C95.167,133.717 95.6,133.417 96.1,133.25C98.833,132.183 101.2,132.85 103.2,135.25L105.4,138.45C105.333,138.783 105.217,139.083 105.05,139.35C104.517,140.25 103.917,141.1 103.25,141.9C99.35,146.433 94.933,150.567 90,154.3C87.933,155.833 85.8,155.917 83.6,154.55L78.85,152.2C79.683,149.7 80.833,147.4 82.3,145.3C84.3,142.433 86.883,140.05 90.05,138.15C91.65,137.183 93.233,135.85 94.8,134.15ZM104.2,144.7C104.933,143.833 105.7,143.017 106.5,142.25C107.567,141.15 108.05,139.833 107.95,138.3C106.783,134.367 104.15,131.667 100.05,130.2C97.683,129.3 95.583,129.683 93.75,131.35L90.85,134.4C90.074,134.964 89.389,135.463 88.65,136C83.283,139.567 79.317,144.233 76.75,150C76.217,151.233 76.067,152.5 76.3,153.8C79.4,155.833 82.8,157.217 86.5,157.95C87.467,158.083 88.35,157.883 89.15,157.35C94.117,154.383 98.567,150.767 102.5,146.5L104.2,144.7Z" style="fill-rule:nonzero;"/>
                    </g>
                    <g>
                        <path d="M77.848,103.004L72.383,100.4L65.898,101.505L52.91,112.367L56.07,118.794L60.696,119.122L69.554,113.785L77.987,107.674L77.848,103.004Z" style="fill:rgb(255,255,0);"/>
                        <path d="M76.432,102.191L76.185,102.13C75.94,102.301 75.7,103 75.45,102.7L74.85,106.35L65.65,112.6L64.6,112.5L55.324,117.82C57.257,119.187 59.539,119.924 61.439,118.424C63.873,116.458 67.577,114.126 70.177,112.526C72.477,112.026 75.356,110.31 77.023,108.51L78.26,106.13C79.16,105.13 77.674,103.61 76.907,102.41L76.432,102.191Z" style="fill:rgb(214,214,8);"/>
                        <path id="ring-top" serif:id="ring top" d="M75.45,102.7C75.783,103.1 76.117,103.533 76.45,104C77.217,105.2 77.15,106.3 76.25,107.3C75.917,107.667 75.583,108.033 75.25,108.4C73.583,110.2 71.6,111.35 69.3,111.85C66.7,113.45 64.183,115.233 61.75,117.2C59.85,118.7 57.933,118.767 56,117.4L54.05,112.25C56.883,109.75 59.833,107.4 62.9,105.2C64.7,103.9 66.667,102.9 68.8,102.2L68.85,101.6C69.05,101.6 69.25,101.617 69.45,101.65C71.617,101.25 73.617,101.6 75.45,102.7ZM75.4,111.2L79.1,108.15C79.4,107.417 79.55,106.667 79.55,105.9C79.617,103.333 78.467,101.467 76.1,100.3C72.767,98.667 69.517,98.617 66.35,100.15L63.75,101.95C63.75,101.95 62.048,102.909 61.45,103.5C60.283,104.4 59.067,105.267 57.8,106.1C56.233,107.2 54.733,108.4 53.3,109.7C52.767,110.167 52.25,110.65 51.75,111.15C51.483,111.383 51.283,111.667 51.15,112C51.817,113.6 52.383,115.2 52.85,116.8C52.95,117.167 53.1,117.5 53.3,117.8C53.4,117.933 53.5,118.05 53.6,118.15C56.7,121.35 60,121.617 63.5,118.95C65.2,117.65 66.983,116.367 68.85,115.1C70.183,114.233 71.483,113.467 72.75,112.8C74.02,112.131 74.371,112.048 75.4,111.2Z" style="fill-rule:nonzero;"/>
                    </g>
                </g>
                <path d="M179.15,84.4L181.7,80.9M282.9,74.05C285.167,75.183 287.433,76.317 289.7,77.45C290.8,77.917 291.733,77.867 292.5,77.3C292.633,77.167 292.75,77.017 292.85,76.85C292.85,75.817 292.55,74.933 291.95,74.2C290.95,73.033 289.867,72.017 288.7,71.15C288.467,70.983 288.267,70.8 288.1,70.6C294.067,71.267 300.017,71.75 305.95,72.05C306.817,72.15 307.483,71.85 307.95,71.15C308.083,70.683 307.967,70.333 307.6,70.1C304.6,68.233 301.65,66.533 298.75,65C296.05,63.467 293.2,62.717 290.2,62.75C293.567,62.55 296.717,61.717 299.65,60.25C300.817,59.683 301.983,59.133 303.15,58.6C304.683,57.9 305.383,56.95 305.25,55.75C304.85,55.583 304.45,55.5 304.05,55.5C296.65,55.633 287.982,56.552 280.615,57.686C278.599,57.996 270.121,67.706 270.121,67.706L282.9,74.05ZM154.85,99.6L156.1,97.25C156.333,97.017 156.517,96.767 156.65,96.5C157.483,94.933 158.583,93.567 159.95,92.4C163.583,89.333 167.233,86.3 170.9,83.3C170.9,83.3 163.917,103.367 162.45,107.1C161.983,108.233 162.017,109.183 162.55,109.95L163.45,110.2L163.95,110L168.4,101.75L169.75,99.85L172.7,95.7L174.45,92.8L175.2,91.45L179.15,84.4L182.131,80.308L177.308,79.832L175.536,80.377L171.646,80.149L166.245,82.383L160.271,83.306L154.861,85.411L153.428,90.735C153.428,90.735 152.126,96.903 152.538,97.655C152.538,97.655 153.663,98.601 154.85,99.6Z" style="fill-rule:nonzero;"/>
                <g>
                    <path d="M271.738,44.76L261.935,39.46L263.128,34.314L257.739,25.682L246.011,16.283L233.438,8.897L218.057,3.779L205.018,1.752L185.938,2.957L168.256,6.343L152.651,13.218L138.35,21.15L128.523,31.758L120.46,45.556L118.103,54.202L113.995,70.118L129.458,77.442L132.371,85.342L134.492,91.138L135.435,107.583L133.044,127.448L125.481,148.177L121.724,160.61L120.137,178.865L118.635,194.55L110.852,206.377L106.446,211.09L145.937,208.631L142.869,199.006L141.45,186.688L142.381,164.942L143.644,156.129L151.296,138.89L153.7,131.317L155.927,118.202L154.16,104.494L152.71,95.696L153.238,87.783L157.092,85.631L165.91,81.967L183.125,78.804L203.262,80.744L226.206,85.167L250.367,82.477L257.662,78.346L261.531,74.333L270.983,67.013L280.817,56.623L280.321,50.673L271.738,44.76Z" style="fill:rgb(153,102,153);"/>
                    <path d="M217.196,3.758C213.063,2.591 210.891,1.489 206.657,1.523C201.591,1.589 200.525,1.103 195.525,1.669C192.158,1.869 186.355,2.798 183.055,3.364C176.755,4.631 174.452,3.867 168.618,6.267C167.418,6.767 159.052,9.782 157.885,10.315C153.319,12.349 151.177,13.505 146.911,16.105C143.144,18.439 139.302,20.693 136.335,23.86C131.802,28.727 129.157,28.577 126.291,34.643C125.124,37.177 121.102,43.017 120.202,45.65L117.07,58.337L113.389,70.352L128.604,77.265C132.837,85.665 134.294,84.893 134.428,94.36C134.461,98.093 135.107,110.606 134.607,114.473C133.741,121.006 132.453,128.178 130.286,134.545C128.286,140.478 126.113,145.779 123.947,151.612C122.447,155.679 122.097,158.788 121.497,163.088C120.53,170.255 120.415,172.168 120.415,179.368C120.415,183.001 119.982,188.658 118.682,191.958C117.615,194.658 115.465,200.087 113.831,202.121C112.031,204.387 108.906,209.57 106.539,211.303L116.903,210.156C120.403,205.49 123.517,199.35 124.85,193.55C125.417,190.983 125.65,188.417 125.55,185.85C125.317,179.183 126.133,172.617 128,166.15C129.3,161.683 130.617,157.217 131.95,152.75C132.717,150.283 133.583,147.817 134.55,145.35C135.783,142.183 136.633,138.85 137.1,135.35C137.233,134.383 137.333,133.417 137.4,132.45C137.533,130.917 137.733,129.45 138,128.05C139.133,122.017 139.8,115.9 140,109.7C140.2,103.067 140,96.433 139.4,89.8C139.267,88.4 138.95,87.1 138.45,85.9C136.817,82.033 134.267,78.967 130.8,76.7C130.367,76.433 129.867,76.267 129.3,76.2C127.8,72.2 127.35,68.033 127.95,63.7C128.183,62.167 128.533,60.65 129,59.15C130.4,54.55 132.1,50.067 134.1,45.7C135.367,42.867 136.817,40.167 138.45,37.6C141.35,33 144.367,28.533 147.5,24.2C149.433,25.2 151.267,24.967 153,23.5C157.233,19.833 161.767,16.583 166.6,13.75C167.533,13.183 168.483,12.633 169.45,12.1C171.383,11.033 173.333,10.033 175.3,9.1C176.867,8.4 178.467,7.95 180.1,7.75C184.8,6.983 189.533,6.117 194.3,5.15C195.967,4.783 197.583,4.617 199.15,4.65C205.05,4.35 213.281,4.93 219.115,5.23L217.196,3.758Z" style="fill:rgb(105,69,105);"/>
                    <path d="M159.1,81.95L154.106,84.185L159.287,83.924L164.917,81.928L159.1,81.95Z" style="fill:rgb(105,69,105);"/>
                    <path d="M261.502,41.73C261.202,42.53 260.3,43.848 259.6,44.515C258.266,45.848 257.614,47.025 256.181,48.192L254.7,49.55L251.75,54.3C250.85,54.667 250.033,55.133 249.3,55.7C247.667,56.967 246.183,58.383 244.85,59.95C243.65,61.383 242.117,62.383 240.25,62.95C233.85,64.683 227.4,65.933 220.9,66.7C215.433,67.5 209.917,68.25 204.35,68.95C201.793,70.154 200.966,70.349 199.811,70.436C196.992,70.649 189.382,70.218 189.4,70.2C188.633,70.267 187.883,70.35 187.15,70.45C182.717,71.183 178.483,72.55 174.45,74.55C178.483,74.05 182.533,73.767 186.6,73.7C192.533,73.633 198.433,74.083 204.3,75.05C205.633,75.283 206.95,75.517 208.25,75.75C214.017,76.25 219.7,76.05 225.3,75.15C231.067,74.383 236.617,72.883 241.95,70.65C243.283,70.117 244.467,69.35 245.5,68.35C247.133,66.85 248.917,65.533 250.85,64.4C256.717,61 261.367,56.383 264.8,50.55C265.2,49.85 265.733,49.217 266.4,48.65C267.867,47.383 269.683,46.7 271.85,46.6L272.474,45.28L263.693,40.548C263.293,40.814 261.868,40.697 261.502,41.73Z" style="fill:rgb(105,69,105);"/>
                    <path id="cap" d="M116.7,73C120.633,73.9 124.117,75.717 127.15,78.45C128.083,79.317 128.8,80.3 129.3,81.4C130.567,84.267 131.55,87.233 132.25,90.3C133.55,95.867 134.067,101.483 133.8,107.15C133.5,113.45 132.75,119.683 131.55,125.85C130.25,132.483 128.2,138.817 125.4,144.85L122.8,150.15L121.65,152.8C119.883,164.667 118.767,176.567 118.3,188.5C118.233,190.533 117.75,192.5 116.85,194.4C113.817,200.8 109.683,206.433 104.45,211.3L104.75,212.3C118.217,211.533 131.667,211.017 145.1,210.75C145.833,210.75 146.5,210.45 147.1,209.85C146.833,208.617 146.55,207.4 146.25,206.2C145.117,201.867 144.233,197.55 143.6,193.25C142.233,183.683 142.183,174.05 143.45,164.35C143.94,161.572 144.033,157.467 145.1,155L151.05,142.8L151.45,141.9L154.15,134.45C154.514,133.722 155.3,132.15 155.3,132.15C155.867,130.25 156.233,128.35 156.4,126.45C156.767,122.017 156.85,117.6 156.65,113.2C156.617,112.6 156.55,112 156.45,111.4C155.683,107.467 155.207,103.464 154.157,99.638L153.89,96.393C154.123,96.16 153.733,90.906 153.688,89.326C153.623,87.061 157.292,85.321 159.033,84.874C163.286,83.783 165.426,83.058 170.234,82.521C173.959,81.914 178.306,81.205 181.015,80.763C182.81,80.47 184.617,80.283 187.15,80.65C199.517,81.683 211.583,83.4 223.35,85.8C224.457,86.026 225.416,86.075 227,86L243.8,85.2L246.5,85.3L251.9,83.05C253.233,82.317 254.6,81.633 256,81C257.967,80.133 259.65,78.867 261.05,77.2C263.683,74.067 267.731,70.952 270.442,69.033C272.901,67.292 280.25,59.949 281.844,57.623C282.044,55.223 281.75,52.75 280.85,50.65C280.65,50.15 280.383,49.733 280.05,49.4C279.983,49.3 279.9,49.217 279.8,49.15C276.2,46.017 272.233,43.417 267.9,41.35C267.067,40.917 266.317,40.417 265.65,39.85C264.917,39.15 264.333,38.333 263.9,37.4C263.933,37.033 263.95,36.667 263.95,36.3C263.95,34.567 263.583,32.917 262.85,31.35C262.183,29.983 261.333,28.65 260.3,27.35C258.2,24.783 255.85,22.533 253.25,20.6C252.75,20.2 252.267,19.817 251.8,19.45C249,17.35 246.2,15.317 243.4,13.35C242.8,12.917 242.217,12.5 241.65,12.1C238.917,10.267 236.033,8.717 233,7.45C227.5,5.017 221.85,3.167 216.05,1.9C208.683,0.233 201.317,-0.35 193.95,0.15C178.983,1.483 164.917,5.467 151.75,12.1C148.917,13.533 146.117,15.083 143.35,16.75C141.383,17.917 139.45,19.25 137.55,20.75C132.117,25.25 127.483,30.483 123.65,36.45C119.617,42.717 117.05,49.617 115.95,57.15C115.35,61.25 114.05,65.15 112.05,68.85C112.05,68.85 110.633,71.5 116.7,73ZM261.6,35.5C261.133,38.7 259.917,41.733 257.95,44.6C257.65,45.033 257.283,45.367 256.85,45.6C255.217,46.7 254.5,48.017 254.7,49.55L256.4,49.8C257.833,48.633 259.217,47.383 260.55,46.05C261.25,45.383 261.75,44.65 262.05,43.85C262.417,42.817 262.8,42.167 263.2,41.9L271.85,46.6C272.65,47.067 273.45,47.55 274.25,48.05C274.983,48.45 275.717,48.883 276.45,49.35C276.617,49.417 276.783,49.5 276.95,49.6C277.05,49.667 277.167,49.733 277.3,49.8C277.4,49.9 277.5,50.017 277.6,50.15C278.9,51.45 279.417,53 279.15,54.8L276.3,57.85C276.067,58.317 275.8,58.75 275.5,59.15C274.133,61.05 272.6,62.783 270.9,64.35C266.9,68.017 262.933,71.567 259,75C258.367,75.533 257.85,76.167 257.45,76.9C257.25,77.233 256.967,77.517 256.6,77.75C255.433,78.617 254.183,79.317 252.85,79.85C246.683,82.317 240.267,83.6 233.6,83.7C230.7,83.733 227.767,83.467 224.8,82.9C220.867,82.267 216.967,81.567 213.1,80.8C208.5,80.067 203.9,79.35 199.3,78.65C193.133,77.983 187.017,77.7 180.95,77.8C174.717,77.9 168.867,79.233 163.4,81.8L154.8,83.6C153.6,84.133 152.717,85 152.15,86.2C151.317,88.033 151.017,89.967 151.25,92C151.383,93.067 151.517,94.15 151.65,95.25C150.85,97.217 150.85,99.35 151.65,101.65C152.35,103.517 152.883,105.483 153.25,107.55C154.217,112.75 154.517,117.967 154.15,123.2C154.05,124.733 153.75,126.2 153.25,127.6C152.85,128.8 152.483,130.033 152.15,131.3C152.05,131.667 151.95,132.067 151.85,132.5C151.75,132.967 151.583,133.383 151.35,133.75C150.75,134.717 150.567,135.783 150.8,136.95C150.8,136.983 150.817,137.017 150.85,137.05C147.983,143.317 145.117,149.583 142.25,155.85C141.917,156.617 141.7,157.417 141.6,158.25C141.167,161.85 140.817,165.467 140.55,169.1C140.15,174.933 139.967,180.833 140,186.8C140.033,193.067 141.25,199.05 143.65,204.75C144.083,205.783 144.567,206.817 145.1,207.85L117.6,209.25L108.7,209.7C111.067,207.967 113.15,205.967 114.95,203.7C116.583,201.667 117.933,199.3 119,196.6C120.3,193.3 120.95,189.833 120.95,186.2C120.95,179 121.433,171.817 122.4,164.65C123,160.35 124.05,156.167 125.55,152.1C127.717,146.267 129.8,140.383 131.8,134.45C133.967,128.083 135.483,121.633 136.35,115.1C136.85,111.233 137.083,107.433 137.05,103.7C136.917,94.233 134.733,85.3 130.5,76.9L116.2,69.95L117.65,63.2L117.2,62.9L119.8,51.45C120.7,48.817 121.733,46.233 122.9,43.7C125.767,37.633 129.467,32.167 134,27.3C136.967,24.133 140.333,21.383 144.1,19.05C148.367,16.45 152.783,14.133 157.35,12.1C158.517,11.567 159.7,11.05 160.9,10.55C166.733,8.15 172.8,6.317 179.1,5.05C182.4,4.483 185.733,4.1 189.1,3.9C194.1,3.333 199.133,3.017 204.2,2.95C208.433,2.917 212.617,3.483 216.75,4.65C217.317,4.817 217.883,4.983 218.45,5.15C224.95,6.417 231,8.733 236.6,12.1C236.733,12.167 236.867,12.25 237,12.35C242.1,15.517 247.033,18.917 251.8,22.55C256.367,25.95 259.633,30.267 261.6,35.5ZM245.2,63.55L244.95,62.65C243.983,62.15 243.017,62.15 242.05,62.65C238.017,64.617 233.85,66.133 229.55,67.2C227.15,67.733 224.733,68.133 222.3,68.4C216.2,68.9 210.217,69.083 204.35,68.95L189.4,70.2C189.367,70.233 189.35,70.267 189.35,70.3C189.35,70.433 189.383,70.433 189.45,70.3C197.117,71.367 204.867,71.8 212.7,71.6C217.3,71.5 221.867,71.05 226.4,70.25C231,69.35 235.6,68.133 240.2,66.6C242.233,66 243.9,64.983 245.2,63.55Z" style="fill-rule:nonzero;"/>
                </g>
            </g>
            <g id="name" transform="matrix(0.802231,0,0,0.802231,110.885,854.431)">
                <g id="s">
                    <path d="M82.014,4.596L74.65,11.8L45,4L37,4L20.758,9.941L10.2,19.6L6.171,29.49L5.181,42.627L9.579,58.447L20.899,72.066L41.666,83.185L59.576,95.936L69.15,107.85L71,110.75L75.05,120.1L66.808,128.781L55.721,135.376L42.576,137.958L31.45,136.05L24.145,133.163L14.85,126.9L8.3,118.4L3.4,103.05L0.438,113.676L0.05,127.8L1.365,135.349L4.405,150.578L16.753,144.422L28.257,144.925L40.618,151.042L35.637,163.782L39.958,166.217L42.353,170.003L41.741,178.024L36.549,183.672L29.657,185.562L35.008,187.887L44.783,186.856L51.331,181.876L56.633,171.725L54.951,162.088L46.816,154.083L55.478,152.093L70.464,144.749L84.02,131.69L89.783,119.171L91.64,105.892L88.509,98.043L79.19,87.181L57.141,73.242L38.491,57.778L23.541,38.694L24.504,33.292L32.736,24.806L47.196,20.782L62.599,23.905L75.255,33.934L82.448,49.605L85.761,33.905L85.761,21.44L82.014,4.596Z" style="fill:rgb(105,205,105);fill-rule:nonzero;"/>
                    <path d="M45.985,151.55C46.119,149.083 43.783,146.85 39.05,144.85C34.317,142.85 28.183,141.283 20.65,140.15C13.117,139.017 8.1,137.017 5.6,134.15C3.067,131.25 1.217,129.133 0.05,127.8L3.4,147.4L6.25,149.05C15.45,142.783 25.3,142.517 35.8,148.25C37.467,149.183 39.2,149.983 41,150.65L35.5,164C40.667,165.533 42.883,169.05 42.15,174.55C41.683,178.15 39.967,181.033 37,183.2C35.167,184.5 33.083,185.05 30.75,184.85L30.05,186.2C34.183,188.267 38.433,188.583 42.8,187.15C43.767,186.85 44.75,186.567 45.75,186.3C47.15,181.067 48,176.217 48.3,171.75C48.567,167.283 47.933,164.85 46.4,164.45C44.867,164.05 43.6,161.083 42.6,155.55C42.967,155.417 43.317,155.267 43.65,155.1C44.917,154.3 45.683,153.183 45.95,151.75L45.985,151.55Z" style="fill:rgb(95,163,95);"/>
                    <path d="M44.595,152.306L46.05,154.4C57.25,152.633 67.1,147.983 75.6,140.45C84.567,132.55 89.667,122.7 90.9,110.9C91.4,106 90.4,101.433 87.9,97.2C88.033,110.733 85.767,120.517 81.1,126.55C76.4,132.55 72.033,136.933 68,139.7L44.595,152.306Z" style="fill:rgb(95,163,95);"/>
                    <path d="M38.4,76.9C27.4,71.867 19.517,64.167 14.75,53.8C9.917,43.433 8.4,32.033 10.2,19.6C4.433,30.467 3.683,41.733 7.95,53.4C12.083,64.667 19.567,72.717 30.4,77.55C41.033,82.283 50.683,88.583 59.35,96.45C63.05,99.883 66.317,103.683 69.15,107.85C68.383,103.85 65.817,98.967 61.45,93.2C57.05,87.4 49.367,81.967 38.4,76.9Z" style="fill:rgb(95,163,95);"/>
                    <path d="M82,51C84.2,44.367 85.45,37.483 85.75,30.35C81.317,28.483 75.867,25.933 69.4,22.7C62.9,19.433 55.433,17.633 47,17.3C38.533,16.933 31.55,21.483 26.05,30.95C34.25,22.05 44.117,19.033 55.65,21.9C68.017,24.967 76.133,32.433 80,44.3C80.733,46.5 81.4,48.733 82,51Z" style="fill:rgb(95,163,95);"/>
                    <path d="M13.75,15.6C20.45,9.633 28.2,5.767 37,4L45,4L74.65,11.8C76.283,11.067 77.583,9.917 78.55,8.35C79.483,6.783 80.6,5.4 81.9,4.2C82.467,6.167 83,8.133 83.5,10.1C85.233,16.867 85.983,23.617 85.75,30.35C85.45,37.483 84.2,44.367 82,51C81.4,48.733 80.733,46.5 80,44.3C76.133,32.433 68.017,24.967 55.65,21.9C44.117,19.033 34.25,22.05 26.05,30.95C24.583,32.783 23.783,34.867 23.65,37.2C23.583,37.967 23.75,38.683 24.15,39.35C28.083,46.017 32.817,52.05 38.35,57.45C47.183,66.017 56.867,73.467 67.4,79.8C70.7,81.833 74.083,83.95 77.55,86.15C82.05,89.017 85.5,92.7 87.9,97.2C90.4,101.433 91.4,106 90.9,110.9C89.667,122.7 84.567,132.55 75.6,140.45C67.1,147.983 57.25,152.633 46.05,154.4L51.3,157.85C52.567,159.017 53.683,160.4 54.65,162C55.983,164.2 56.55,166.533 56.35,169C55.917,174.133 54,178.65 50.6,182.55C49.2,184.183 47.583,185.433 45.75,186.3C44.75,186.567 43.767,186.85 42.8,187.15C38.433,188.583 34.183,188.267 30.05,186.2C30.05,186.2 29.387,187.479 30.087,186.129C32.42,186.329 35.167,184.5 37,183.2C39.967,181.033 41.683,178.15 42.15,174.55C42.883,169.05 40.667,165.533 35.5,164L41,150.65C39.2,149.983 37.467,149.183 35.8,148.25C25.3,142.517 15.45,142.783 6.25,149.05C5.65,149.65 5.083,150.283 4.55,150.95C4.117,149.783 3.733,148.6 3.4,147.4L0.05,127.8C-0.217,119.6 0.9,111.35 3.4,103.05C4.3,108.417 5.933,113.533 8.3,118.4C9.933,121.7 12.117,124.533 14.85,126.9C19.717,131.133 25.25,134.183 31.45,136.05C37.45,137.883 43.467,138.133 49.5,136.8C59.967,134.433 68.483,128.867 75.05,120.1C74.217,116.9 72.867,113.783 71,110.75C70.4,109.75 69.783,108.783 69.15,107.85C66.317,103.683 63.05,99.883 59.35,96.45C50.683,88.583 41.033,82.283 30.4,77.55C19.567,72.717 12.083,64.667 7.95,53.4C3.683,41.733 4.433,30.467 10.2,19.6L13.75,15.6Z" style="fill:none;fill-rule:nonzero;stroke:black;stroke-width:3px;"/>
                </g>
                <g id="h">
                    <path d="M131.506,83.271L144.739,73.391L157.07,67.6L159.461,73.524L158.926,84.783L165.114,67.008L170.5,81.517L172.932,100.664L172.996,117.64L169.357,140.969L155.724,147.047L202,147L190,142L188.75,115.7L190.05,87.05L187.853,74.528L179.603,61.413L167.9,54.55L155.41,53.922L134.9,62.4L130.8,58.75L130,0L99.515,11.059L102.742,14.345L107.591,13.516L110.472,20.918L114.445,44.392L114.946,72.223L112.156,140.849L100.764,146.883L146,147L133,141L130.9,89.1L131.506,83.271Z" style="fill:rgb(104,205,104);fill-rule:nonzero;"/>
                    <path d="M113.7,8.1C113.333,7.4 112.967,6.767 112.6,6.2L99,11C99.267,11.3 99.55,11.617 99.85,11.95C100.083,12.217 100.35,12.467 100.65,12.7C100.917,12.933 101.217,13.15 101.55,13.35C101.85,13.517 102.15,13.683 102.45,13.85C102.783,13.95 103.133,14.083 103.5,14.25C103.833,14.217 104.183,14.2 104.55,14.2L105.7,14.2C106.1,14.1 106.5,14 106.9,13.9C107.1,13.867 107.317,13.85 107.55,13.85C107.717,13.883 107.883,13.917 108.05,13.95C108.217,14.217 108.333,14.5 108.4,14.8C110.333,22 111.817,29.3 112.85,36.7C113.883,44.2 114.483,51.7 114.65,59.2C114.75,64.267 114.767,69.333 114.7,74.4C114.6,79.967 114.45,85.533 114.25,91.1C114.05,96.633 113.833,102.167 113.6,107.7C113.367,113.267 113.117,118.833 112.85,124.4C112.583,129.933 112.3,135.467 112,141L103.85,145.1C103.683,145.7 103.617,146.217 103.65,146.65C103.65,146.783 103.667,146.9 103.7,147L117.1,147C117.6,146.267 118.333,145.017 119.3,143.25C120.233,141.483 120.017,140.95 118.65,141.65C118.517,141.717 118.4,141.767 118.3,141.8C117.867,145.133 117.7,145.083 117.8,141.65C117.8,141.117 117.817,140.5 117.85,139.8C118.15,131.567 119.317,111.9 121.35,80.8L121.65,67.15C121.083,79.25 120.75,79.583 120.65,68.15C120.517,56.717 120.433,48.15 120.4,42.45C120.333,36.75 119.85,31.067 118.95,25.4C118.017,19.733 117.3,16.233 116.8,14.9C115.8,12.3 114.767,10.033 113.7,8.1Z" style="fill:rgb(95,163,95);"/>
                    <path d="M163.15,68.35C163.083,70.583 161.783,71.7 162.25,72.8C162.383,73.1 162.517,73.417 162.65,73.75L165.35,66.15L165.35,66.2C165.95,67.867 166.533,69.567 167.1,71.3C171.667,85.167 173.683,99.4 173.15,114C172.817,123.2 171.433,132.2 169,141C169,141 161.142,145.374 161.275,145.907C161.475,146.674 166.75,146.433 172.65,147L173.15,147C173.65,146.633 174.15,146.2 174.65,145.7C177.117,143.233 178.2,140.833 177.9,138.5C177.567,137.233 177.35,136.283 177.25,135.65C177.117,134.85 177.233,133.567 177.6,131.8C179.533,121.667 180.067,111.45 179.2,101.15C178.3,90.85 177.05,83.85 175.45,80.15C173.85,76.417 172.283,72.817 170.75,69.35C169.217,65.883 167.983,64.05 167.05,63.85C166.083,63.65 165.2,63.783 164.4,64.25C163.6,64.717 163.183,66.083 163.15,68.35Z" style="fill:rgb(95,163,95);"/>
                    <path d="M103.85,145.1L100,147L146,147L133,141L130.9,89.1C131.367,85.067 131.733,82.967 132,82.8C132.267,82.567 132.517,82.333 132.75,82.1C140.017,76 145.8,72.183 150.1,70.65C154.6,68.25 156.933,67.117 157.1,67.25C157.167,67.35 157.233,67.45 157.3,67.55C159.667,72.383 160.25,77.517 159.05,82.95C158.883,83.617 158.75,84.283 158.65,84.95L162.65,73.75L165.35,66.15L165.35,66.2C165.95,67.867 166.533,69.567 167.1,71.3C171.667,85.167 173.683,99.4 173.15,114C172.817,123.2 171.433,132.2 169,141L163.35,143.45L155,147L202,147L190,142C189.167,133.267 188.75,124.5 188.75,115.7C188.75,108.133 189.15,100.5 189.95,92.8C190.05,91.833 190.1,90.867 190.1,89.9C190.1,88.933 190.083,87.983 190.05,87.05C189.383,74.883 184.183,65.167 174.45,57.9C172.45,56.433 170.267,55.317 167.9,54.55C165.6,53.817 163.217,53.467 160.75,53.5C159.05,53.7 157.367,53.983 155.7,54.35C153.867,54.717 152.067,55.167 150.3,55.7C148.533,56.3 146.8,56.95 145.1,57.65C143.367,58.317 141.667,59.083 140,59.95C138.267,60.717 136.567,61.533 134.9,62.4L130.8,58.75L130,0L112.6,6.2L99,11C99.267,11.3 99.55,11.617 99.85,11.95C100.083,12.217 100.35,12.467 100.65,12.7C100.917,12.933 101.217,13.15 101.55,13.35C101.85,13.517 102.15,13.683 102.45,13.85C102.783,13.95 103.133,14.083 103.5,14.25C103.833,14.217 104.183,14.2 104.55,14.2L105.7,14.2C106.1,14.1 106.5,14 106.9,13.9C107.1,13.867 107.317,13.85 107.55,13.85C107.717,13.883 107.883,13.917 108.05,13.95C108.217,14.217 108.333,14.5 108.4,14.8C110.333,22 111.817,29.3 112.85,36.7C113.883,44.2 114.483,51.7 114.65,59.2C114.75,64.267 114.767,69.333 114.7,74.4C114.6,79.967 114.45,85.533 114.25,91.1C114.05,96.633 113.833,102.167 113.6,107.7C113.367,113.267 113.117,118.833 112.85,124.4C112.583,129.933 112.3,135.467 112,141L103.85,145.1Z" style="fill:none;fill-rule:nonzero;stroke:black;stroke-width:3px;"/>
                </g>
                <g id="a">
                    <path d="M260.225,39.163L245.85,39.25L233.714,41.998L222.784,48.367L212.165,63.507L207.677,86.257L208.811,113.973L213.589,136.671L213.628,146.767L220.127,147.592L227.1,144.31L226.518,132.001L228.216,116.484L233.65,104.241L240.011,106.583L256.064,108.237L270.791,103.057L284.232,99.688L287.294,146.58L300.877,147.071L303.455,114.115L302.806,87.515L297.615,64.557L288.28,50.006L275.413,42.273L260.225,39.163ZM284.926,85.431L279.73,86.707L268.634,83.112L258,76L250,76L233.8,87.15L223.65,99L220,85L219.773,77.696L227.593,66.317L239.639,56.902L255.698,54.828L270.677,57.819L281.03,64.316L284.719,74.784L284.926,85.431ZM250.9,98.35L248,90L254.61,87.509L260.369,87.89L261.631,94.537L259.638,99.526L250.9,98.35" style="fill:rgb(103,204,103);fill-rule:nonzero;"/>
                    <path d="M226.95,144.45L226.7,140.8L226.7,140.45L226.65,140.45C226.242,140.383 225.725,140.35 225.1,140.35C224.867,140.417 224.683,140.4 224.55,140.3C224.417,140.233 224.283,140.1 224.15,139.9C223.85,139.533 223.517,139.25 223.15,139.05C222.217,138.65 221.55,138.3 221.15,138C220.783,137.633 220.5,137.367 220.3,137.2C220.233,137.167 220.183,137.133 220.15,137.1L219.35,130.4C219.183,140.033 218.6,141.467 217.6,134.7C216.6,127.9 215.5,119.283 214.3,108.85C213.1,98.383 212.6,90.7 212.8,85.8C212.967,80.867 213.883,74.717 215.55,67.35C217.117,60.25 219.65,53.983 223.15,48.55C217.583,53.117 213.717,59.017 211.55,66.25C211.517,66.383 211.483,66.517 211.45,66.65C211.417,66.683 211.4,66.717 211.4,66.75L211.4,66.85L208.9,78.1L208.8,78.85C208.767,79.15 208.75,79.45 208.75,79.75C208.683,81.717 208.583,83.033 208.45,83.7C208.383,84.2 208.267,84.883 208.1,85.75C207.933,87.983 207.867,90.217 207.9,92.45L207.9,93.15L208.05,97.6C208.117,98.033 208.2,98.483 208.3,98.95L208.514,105.418C207.981,105.151 209.833,112.517 209.2,112.75C209.4,114.35 209.617,115.95 209.85,117.55C210.683,123.117 211.65,128.717 212.75,134.35C213.55,138.517 213.833,142.733 213.6,147C215.067,147.4 216.533,147.617 218,147.65C218.133,147.183 221.789,147.512 221.923,146.912L224.7,145.75C225.2,145.683 225.633,145.633 226,145.6C226.333,145.267 226.65,144.883 226.95,144.45Z" style="fill:rgb(95,163,95);"/>
                    <path d="M281.7,94.9C281.167,95 280.533,95.183 279.8,95.45C279,95.817 278.383,96.083 277.95,96.25C276.317,96.983 273.9,97.667 270.7,98.3L254.6,101.65C252.467,102.117 250.867,102.267 249.8,102.1C247.833,101.833 243.467,101.567 236.7,101.3C236.067,101.267 235.5,101.233 235,101.2C234.6,102.033 234.15,103.017 233.65,104.15C234.283,103.717 235,103.967 235.8,104.9C236.6,105.8 239.15,106.6 243.45,107.3C247.75,107.967 250.883,108.35 252.85,108.45C252.983,108.45 253.117,108.433 253.25,108.4C256.017,108.1 258.75,107.55 261.45,106.75C261.183,106.35 265.15,105.801 264.717,105.534L268.65,104C268.75,103.933 268.867,103.867 269,103.8L269.2,103.7C271.633,102.567 274.167,101.667 276.8,101C278.867,100.467 280.933,100.033 283,99.7C283.6,99.6 284.2,99.517 284.8,99.45L286.95,146.1C286.983,146.1 287.017,146.117 287.05,146.15C287.45,146.483 287.867,146.767 288.3,147L294.15,147C294.45,146.667 294.65,146.283 294.75,145.85C295.35,145.683 296.117,145.633 297.05,145.7C298.417,145.767 299.2,145.8 299.4,145.8C299.967,145.767 300.5,145.667 301,145.5C300.4,142.033 299.583,140.217 298.55,140.05C297.05,139.783 295.9,139.817 295.1,140.15C294.5,140.45 294.05,140.617 293.75,140.65C293.317,140.683 292.9,140.55 292.5,140.25C292.133,139.95 291.867,139.583 291.7,139.15C291.567,138.817 291.417,137.917 291.25,136.45C291.117,135.617 290.8,134.483 290.3,133.05C289.7,131.483 289.333,130.367 289.2,129.7C288.867,128.367 288.733,126.35 288.8,123.65C288.933,117.283 288.9,112.767 288.7,110.1C288.5,108.1 288.367,106.617 288.3,105.65C288.133,103.883 288.083,102.383 288.15,101.15C288.283,99.65 288.167,98.583 287.8,97.95C287.4,97.283 286.75,96.9 285.85,96.8L285.35,96.8C285.317,96.633 285.25,96.467 285.15,96.3C284.85,95.733 284.35,95.333 283.65,95.1C283.05,94.867 282.4,94.8 281.7,94.9Z" style="fill:rgb(95,163,95);"/>
                    <path d="M277.95,61.7C279.717,62.867 281.017,64.333 281.85,66.1C282.75,67.967 283.467,69.867 284,71.8C284.2,71.567 284.367,71.283 284.5,70.95C284.833,70.183 284.867,69.133 284.6,67.8C283.833,63.333 281.783,59.733 278.45,57C277.217,55.967 275.317,54.817 272.75,53.55C270.217,52.317 268.067,51.483 266.3,51.05C264.267,50.55 261.7,50.367 258.6,50.5C254.267,50.6 250.067,51.067 246,51.9C243.833,52.3 241.317,52.9 238.45,53.7C232.55,55.467 228.167,57.9 225.3,61C224.8,61.567 224.267,62.233 223.7,63C223,64.1 222.35,65.25 221.75,66.45L220.7,68.45C219.767,70.283 219.133,71.7 218.8,72.7C218.267,74.333 218.083,75.833 218.25,77.2C218.417,78.5 218.883,79.483 219.65,80.15C219.75,80.25 219.867,80.35 220,80.45L220,77.75C224.767,67.783 231.183,61.083 239.25,57.65C244.717,55.417 250.433,54.517 256.4,54.95C256.5,54.95 256.617,54.967 256.75,55C258.283,55.067 259.817,55.217 261.35,55.45C261.95,55.517 262.55,55.617 263.15,55.75C264.05,55.817 264.867,55.933 265.6,56.1C266.6,56.3 267.783,56.717 269.15,57.35C272.217,58.417 275.15,59.867 277.95,61.7Z" style="fill:rgb(95,163,95);"/>
                    <path d="M248,90C251.567,87.533 255.417,86.733 259.55,87.6C259.817,87.7 260.083,87.817 260.35,87.95C261.85,91.683 261.767,95.167 260.1,98.4C259.667,99.2 258.933,99.667 257.9,99.8C255.433,99.9 253.1,99.417 250.9,98.35L248,90ZM250,76L258,76C262.5,80.033 267.6,82.983 273.3,84.85C274.833,85.317 276.367,85.783 277.9,86.25C280.867,87.15 283.3,86.45 285.2,84.15C285.5,79.883 285.1,75.767 284,71.8C283.467,69.867 282.75,67.967 281.85,66.1C281.017,64.333 279.717,62.867 277.95,61.7C275.15,59.867 272.217,58.417 269.15,57.35C267.183,56.65 265.183,56.117 263.15,55.75C262.55,55.617 261.95,55.517 261.35,55.45C259.817,55.217 258.283,55.067 256.75,55C256.617,54.967 256.5,54.95 256.4,54.95C250.433,54.517 244.717,55.417 239.25,57.65C231.183,61.083 224.767,67.783 220,77.75L220,85L223.65,99C226.717,94.733 230.1,90.783 233.8,87.15C238.633,82.45 244.033,78.733 250,76ZM208.85,78.45C208.477,80.872 208.227,83.305 208.1,85.75C207.933,87.983 207.867,90.217 207.9,92.45L207.9,93.15L208.05,97.6C208.217,102.633 208.6,107.683 209.2,112.75C209.4,114.35 209.617,115.95 209.85,117.55C210.683,123.117 211.65,128.717 212.75,134.35C213.55,138.517 213.833,142.733 213.6,147C215.067,147.4 216.533,147.617 218,147.65C219.633,147.683 221.267,147.5 222.9,147.1C224.1,146.9 225.133,146.4 226,145.6C226.333,145.267 226.65,144.883 226.95,144.45L226.7,140.8C226.694,140.682 226.686,140.566 226.675,140.45C225.897,123.896 228.222,111.796 233.65,104.15C234.283,103.717 235,103.967 235.8,104.9C236.6,105.8 239.15,106.6 243.45,107.3C247.75,107.967 250.883,108.35 252.85,108.45C252.983,108.45 253.117,108.433 253.25,108.4C256.017,108.1 258.75,107.55 261.45,106.75C263.883,106.017 266.283,105.1 268.65,104C268.75,103.933 268.867,103.867 269,103.8L269.2,103.7C271.633,102.567 274.167,101.667 276.8,101C278.867,100.467 280.933,100.033 283,99.7C283.6,99.6 284.2,99.517 284.8,99.45L286.95,146.1L287,147L301,147L301,145.5C301.033,145.167 301.083,144.85 301.15,144.55C304.45,121.05 304.4,98.533 301,77C299.7,68.167 296.283,60.267 290.75,53.3C286.217,47.6 280.433,43.65 273.4,41.45C264.433,38.65 255.25,37.917 245.85,39.25C239.483,39.983 233.517,41.967 227.95,45.2C226.217,46.233 224.617,47.35 223.15,48.55C217.583,53.117 213.717,59.017 211.55,66.25C211.517,66.383 211.483,66.517 211.45,66.65L211.4,66.75L211.4,66.85L208.9,78.1L208.85,78.45Z" style="fill:none;fill-rule:nonzero;stroke:black;stroke-width:3px;"/>
                </g>
                <g id="k">
                    <path d="M322.651,13.216L326.933,47.867L327.818,71.777L327.518,103.681L323.571,141.8L313.315,147.157L358.484,146.893L346.365,141.559L344.05,125.55L343,96L345.156,95.853L362.372,116.963L375.592,141.804L370.913,145.627L372.011,147.228L408.439,146.876L388.329,125.442L363.759,93.774L372.713,80.916L387.821,67.662L408.211,55.828L408.886,53.405L371.862,53.315L368.127,59.714L373.518,62.018L348.478,90.004L344,94L342,0L311,12L322.651,13.216Z" style="fill:rgb(105,205,104);fill-rule:nonzero;"/>
                    <path d="M346.3,97.15C346.333,97.283 346.383,97.417 346.45,97.55C351.483,103.017 356.117,108.817 360.35,114.95C364.983,121.65 369.083,128.667 372.65,136C373.65,138.067 374.65,140.133 375.65,142.2L372.2,144.35C372.633,144.683 372.077,146.186 372.811,146.519C374.511,147.219 380.8,146.6 389.4,147C389.467,146.967 389.533,146.933 389.6,146.9C390,146.7 390.35,146.583 390.65,146.55C391.083,146.45 391.85,146.517 392.95,146.75C393.317,146.85 393.7,146.933 394.1,147L409.05,147C409.583,146.733 409.967,146.367 410.2,145.9C410.433,145.467 410.5,144.983 410.4,144.45C409.867,144.35 409.333,144.283 408.8,144.25C407.867,144.15 406.933,144.067 406,144C404.967,142.967 403.95,141.95 402.95,140.95L401.2,140.35C400.567,140.183 399.067,140.017 396.7,139.85C392.933,139.683 389.283,139.033 385.75,137.9C384.15,137.4 382.983,136.833 382.25,136.2C381.683,135.667 381.117,134.983 380.55,134.15C377.983,130.617 375.417,126.817 372.85,122.75C370.517,119.317 369.267,117.483 369.1,117.25C368.433,116.383 367.567,115.35 366.5,114.15C365.3,112.85 364.4,111.85 363.8,111.15C362.133,109.283 360.1,106.833 357.7,103.8C354.333,99.5 352.35,96.983 351.75,96.25C350.883,95.25 350.2,94.617 349.7,94.35C348.667,93.817 347.783,93.817 347.05,94.35C346.183,95.017 345.933,95.95 346.3,97.15Z" style="fill:rgb(95,163,95);"/>
                    <path d="M329.75,41.65C328.783,35.317 328.233,31.367 328.1,29.8C327.967,26.6 327.85,24.2 327.75,22.6C327.55,19.767 327.217,17.4 326.75,15.5C326.417,14.133 325.967,13.167 325.4,12.6C325,12.2 324.533,11.917 324,11.75C323.433,11.617 322.917,11.667 322.45,11.9C322.017,12.1 321.7,12.433 321.5,12.9L323,13C323.667,18.4 324.333,23.8 325,29.2C325.967,37.233 326.667,45.3 327.1,53.4C327.1,53.667 327.117,53.933 327.15,54.2C327.617,63.667 327.817,73.117 327.75,82.55L327.75,83.5C328.017,89.267 328.1,93.667 328,96.7C328,97.733 327.783,98.45 327.35,98.85C326.75,112.717 325.567,126.567 323.8,140.4L323.8,140.6L323.75,140.6C323.683,141.1 323.617,141.6 323.55,142.1C323.017,142.367 322.5,142.65 322,142.95C321.967,142.983 321.933,143 321.9,143L321.1,143.5C321.067,143.633 318.268,145.918 318.268,146.085C318.335,146.885 321.433,145.467 322,146.1C322.433,146.533 322.9,146.833 323.4,147L325.75,147C326.317,146.833 326.95,146.583 327.65,146.25C329.35,145.383 330.118,147.315 330.818,147.248C331.485,147.148 333.144,146.575 333.977,146.775C334.277,146.808 334.533,145.217 335.7,145.55C338.167,146.117 341.467,146.4 345.6,146.4C348.167,146.467 352.895,147.591 353.262,146.225C353.328,145.925 350.083,143.85 350.05,143.55L346,142C345.933,141.633 345.883,141.283 345.85,140.95C345.55,140.917 345.233,140.883 344.9,140.85C341.6,140.617 338.317,140.033 335.05,139.1C333.55,138.633 332.55,138.05 332.05,137.35C331.783,136.917 331.583,136.367 331.45,135.7C331.45,135.567 331.4,134.983 331.3,133.95C331.233,133.083 331.017,131.683 330.65,129.75C330.317,127.95 330.133,126.55 330.1,125.55C330.033,124.283 330.2,122.417 330.6,119.95C331.633,113.917 332.317,108.533 332.65,103.8C332.983,99.467 333.083,94.567 332.95,89.1C332.883,86.1 332.65,81.183 332.25,74.35L331.65,64.45C331.15,54.717 330.517,47.117 329.75,41.65Z" style="fill:rgb(95,163,95);"/>
                    <path d="M360.35,89.35C359.917,90.683 359.833,91.817 360.1,92.75C360.267,93.35 360.583,93.85 361.05,94.25C361.517,94.65 362.033,94.833 362.6,94.8C363.2,94.767 363.717,94.55 364.15,94.15C363.883,93.817 363.633,93.467 363.4,93.1C365.2,90.467 367.117,87.933 369.15,85.5C369.183,85.3 369.233,85.067 369.3,84.8C369.433,84.2 369.55,83.783 369.65,83.55C369.95,82.883 370.45,82.167 371.15,81.4C372.317,80.167 374.117,78.683 376.55,76.95L378.05,75.85C378.15,75.75 378.267,75.65 378.4,75.55L387.35,67.9C387.683,67.633 388.017,67.367 388.35,67.1C391.183,64.933 394.117,62.9 397.15,61C399.25,59.733 401.383,58.567 403.55,57.5C402.783,57.3 401.767,57.4 400.5,57.8C398.033,58.567 394.417,60.217 389.65,62.75L385.45,65C382.65,66.467 380.517,67.75 379.05,68.85L372.75,73.6C366.117,78.333 361.983,83.583 360.35,89.35Z" style="fill:rgb(95,163,95);"/>
                    <path d="M371,147L370.35,145.45L372.2,144.35L375.65,142.2C374.65,140.133 373.65,138.067 372.65,136C369.083,128.667 364.983,121.65 360.35,114.95C356.117,108.817 351.483,103.017 346.45,97.55C345.983,97.017 345.5,96.5 345,96L343,96C342.833,105.867 343.183,115.717 344.05,125.55C344.483,130.717 345.083,135.85 345.85,140.95C345.883,141.283 345.933,141.633 346,142L350.05,143.55L359,147L311,147L310,145C314.11,145.899 317.944,145.316 321.5,143.25L321.9,143C321.933,143 321.967,142.983 322,142.95C322.5,142.65 323.017,142.367 323.55,142.1C323.617,141.6 323.683,141.1 323.75,140.6C323.75,140.533 323.767,140.467 323.8,140.4C325.567,126.567 326.75,112.717 327.35,98.85C327.55,93.717 327.683,88.6 327.75,83.5L327.75,82.55C327.817,73.117 327.617,63.667 327.15,54.2C327.117,53.933 327.1,53.667 327.1,53.4C326.667,45.3 325.967,37.233 325,29.2C324.333,23.8 323.667,18.4 323,13L321.5,12.9L311,12L342,0L344,94L373.4,62.1C373.333,61.933 373.25,61.8 373.15,61.7C371.483,60.267 369.433,59.6 367,59.7L371.5,53L409.85,53C409.85,53 409.377,54.112 409,55C407.167,55.767 405.35,56.6 403.55,57.5C401.383,58.567 399.25,59.733 397.15,61C394.117,62.9 391.183,64.933 388.35,67.1C388.017,67.367 387.683,67.633 387.35,67.9L378.4,75.55C375.1,78.683 372.017,82 369.15,85.5C367.117,87.933 365.2,90.467 363.4,93.1C363.633,93.467 363.883,93.817 364.15,94.15C365.517,96.083 366.9,98 368.3,99.9C378.767,114.433 390.317,128.117 402.95,140.95C403.95,141.95 404.967,142.967 406,144C406.933,144.067 407.867,144.15 408.8,144.25C409.333,144.283 409.867,144.35 410.4,144.45C412.467,144.85 414.333,145.7 416,147L371,147Z" style="fill:none;fill-rule:nonzero;stroke:black;stroke-width:3px;"/>
                </g>
                <g id="u">
                    <path d="M502,41L489.049,37.182L483.668,66.785L482.394,85.951L482.909,100.149L487,110L477.75,112.85L451,124L451,125L447.05,128.95L446.75,112.75L447.35,97.7L448.103,86.256L447.887,74.484L443.749,57.753L436,41L427.191,40.219L420.562,41.047L411.5,52.35L408.859,52.981L410.744,57.913L413.351,63.503L418.676,69.77L424.275,74.164L430.11,75.494L430.51,98.907L430.845,122.796L431.445,146.858L445.056,147.003L449.528,141.72L456.879,135.629L466.14,130.423L478.427,126.114L494.528,125.765L506.764,131.057L489.427,140.219L494.151,144.118L502.832,147.904L516.712,147.977L523.773,143.617L527.343,136.179L527.046,127.105L522.05,119.35L514.328,112.923L502,109L502,41" style="fill:rgb(103,204,103);fill-rule:nonzero;"/>
                    <path d="M494.95,120.05C492.417,119.483 489.517,119.35 486.25,119.65C484.35,119.85 481.45,120.333 477.55,121.1C474.35,121.767 472,122.517 470.5,123.35C469.567,123.883 468.2,124.783 466.4,126.05C465.9,126.35 465.267,126.683 464.5,127.05C463.6,127.417 462.933,127.7 462.5,127.9C459.6,129.167 455.417,131.4 449.95,134.6L445.15,137.4C443.517,138.4 442.633,139.367 442.5,140.3C441,140.167 439.883,140.2 439.15,140.4C439.217,130.933 439.117,123.35 438.85,117.65C438.683,113.617 438.267,107.483 437.6,99.25C437.233,94.417 436.833,89.7 436.4,85.1C436,80.5 435.667,77.05 435.4,74.75C435.133,72.317 434.633,70.583 433.9,69.55C433.1,68.45 431.667,67.483 429.6,66.65C426.9,65.617 425.25,64.9 424.65,64.5C423.917,63.967 423.167,63.25 422.4,62.35C422.167,62.117 421.5,61.3 420.4,59.9C418.7,57.767 416.75,55.75 414.55,53.85C413.35,52.883 412.333,52.383 411.5,52.35L411,53L409.85,53C409.25,53.533 409.067,54.35 409.3,55.45C409.5,56.25 409.967,57.1 410.7,58C413.933,62.6 416.01,67.096 418.31,69.329C421.81,72.729 426.133,73.833 429.9,74.8C429.9,74.867 429.917,74.933 429.95,75L430,75L430,75.5C430.8,79.967 430.336,83.378 430.603,85.545C431.136,89.511 430.383,92.515 430.283,95.682C430.249,97.848 430.983,101.5 430.516,105.7C430.15,109.6 430.833,113.483 430.6,117.35L431,146.45C431.2,146.65 431.433,146.8 431.7,146.9C431.8,146.933 431.883,146.967 431.95,147L433.05,147C433.084,146.999 433.118,146.982 433.15,146.95L433.15,147L439.15,147L440.743,146.1C441.476,146.3 440.883,146.1 442.15,146.1C443.85,146.1 445.217,145.933 446.25,145.6C452.65,138.433 459.35,133.35 466.35,130.35C471.517,128.117 476.25,126.65 480.55,125.95L480.55,125.9C484.45,124.467 488.533,124.183 492.8,125.05C495.5,125.583 497.95,126.533 500.15,127.9C500.85,128.133 501.55,128.4 502.25,128.7L502.35,128.75C502.383,128.75 502.433,128.767 502.5,128.8L502.55,128.85L503.65,129.05C503.85,129.05 504.067,129.133 504.3,129.3L504.65,129.65C504.717,129.65 504.8,129.683 504.9,129.75L507.05,130.6C507.283,130.667 507.517,130.75 507.75,130.85C507.95,130.783 508.133,130.7 508.3,130.6C508.967,130.2 509.35,129.6 509.45,128.8C509.55,128.033 509.4,127.35 509,126.75L508.35,126C507.883,125.467 507.433,125.05 507,124.75C506.233,124.383 505.65,124.1 505.25,123.9C504.483,123.533 503.9,123.267 503.5,123.1C502.9,122.833 502.209,122.639 501.612,122.426C500.187,121.918 497.217,120.583 494.95,120.05Z" style="fill:rgb(95,163,95);"/>
                    <path d="M527,135L527,127.35C526.733,127.483 526.962,126.508 526.662,126.674C526.662,126.241 526.2,126.667 526.3,125.7C525.9,124.967 525.5,124.267 525.1,123.6C524.167,122.067 523.15,120.65 522.05,119.35C522.017,119.883 521.933,120.517 521.8,121.25C521.5,122.85 521.333,123.767 521.3,124C521.233,124.8 521.183,125.983 521.15,127.55C521.017,128.65 520.583,130.15 519.85,132.05C519.117,133.75 518.55,134.85 518.15,135.35C517.517,136.183 516.2,137.217 514.2,138.45L510.6,140.5C509.567,141.1 508.85,141.45 508.45,141.55C507.717,141.717 506.9,141.75 506,141.65C503.9,141.383 502.05,140.717 500.45,139.65C499.283,138.783 498.383,138.15 497.75,137.75C497.05,137.283 496.367,136.967 495.7,136.8L491.55,138.8C491.483,139.167 489.505,140.346 489.571,140.779C489.705,141.646 492.067,141.683 492.7,142.45C494.3,144.417 496.583,145.683 499.55,146.25C501.417,146.65 501.625,148.042 505.092,147.909C509.225,147.909 514.167,147.581 515,147.614C516.9,147.681 518.317,146.667 519.25,146.4C520.65,146 522.15,145 523.75,143.4C524.083,143.067 524.433,142.717 524.8,142.35C526.267,140.217 527,137.767 527,135Z" style="fill:rgb(95,163,95);"/>
                    <path d="M494.85,38.75L489.05,36.9C488.85,37.967 488.65,39.017 488.45,40.05C482.283,71.183 480.817,92.433 484.05,103.8C484.45,103.8 484.57,105.811 484.87,105.611L486.85,109C487.417,110.667 488.05,111.733 488.75,112.2C488.883,112.3 489.033,112.383 489.2,112.45C489.067,111.583 489.167,110.267 489.5,108.5C490.1,104.967 489.433,99.95 487.5,93.45L487.5,86.7C487.033,84.033 486.833,82.017 486.9,80.65C486.933,80.017 487.017,79.233 487.15,78.3C487.317,77.3 487.433,76.55 487.5,76.05L488.1,71.2C488.367,69.2 489.067,65.983 490.2,61.55L492.75,51.75C493.483,48.95 493.967,46.85 494.2,45.45C494.5,43.65 494.7,41.6 494.8,39.3C494.8,39.133 494.817,38.95 494.85,38.75Z" style="fill:rgb(95,163,95);"/>
                    <path d="M484.05,103.8C484.783,106.367 485.767,108.433 487,110C483.9,110.9 480.817,111.85 477.75,112.85C468.45,115.717 459.533,119.433 451,124L451,125L447.05,128.95L446.75,112.75C446.617,107.717 446.817,102.7 447.35,97.7C448.05,90.933 448.067,84.183 447.4,77.45C447.267,76.117 447.117,74.8 446.95,73.5C445.517,63.333 442.467,53.65 437.8,44.45C437.2,43.283 436.6,42.133 436,41C431.633,40 427.167,39.833 422.6,40.5C421.733,40.667 420.867,40.833 420,41L411.5,52.35L411,53C410.239,53.761 409.699,54.301 409,55C411.033,60.833 414.333,65.9 418.9,70.2C420.467,71.7 422.217,72.933 424.15,73.9C425.283,74.4 426.433,74.733 427.6,74.9C428.367,74.933 429.15,74.967 429.95,75L430,75L430,75.5L431,147L445,147C445.4,146.533 445.817,146.067 446.25,145.6C452.65,138.433 459.35,133.35 466.35,130.35C471.517,128.117 476.25,126.65 480.55,125.95C482.45,125.65 484.25,125.5 485.95,125.5C490.817,125.433 495.55,126.233 500.15,127.9C500.85,128.133 501.55,128.4 502.25,128.7L502.55,128.85C503.217,129.083 503.917,129.35 504.65,129.65C504.717,129.65 504.8,129.683 504.9,129.75L507.05,130.6C507.317,130.7 507.583,130.8 507.85,130.9L502.95,133.3L495.7,136.8L491.55,138.8L489,140C491.333,142.867 494.3,144.967 497.9,146.3C499.267,146.867 500.633,147.433 502,148L514,148C517.6,148 520.667,146.733 523.2,144.2C523.8,143.6 524.333,142.983 524.8,142.35C526.267,140.217 527,137.767 527,135L527,127C526.767,126.567 526.533,126.133 526.3,125.7C525.9,124.967 525.5,124.267 525.1,123.6C524.167,122.067 523.15,120.65 522.05,119.35C517.55,114.083 511.65,110.817 504.35,109.55C503.55,109.35 502.767,109.167 502,109L502,41L500.25,40.45L494.85,38.75L489.05,36.9C488.85,37.967 488.65,39.017 488.45,40.05C482.283,71.183 480.817,92.433 484.05,103.8Z" style="fill:none;fill-rule:nonzero;stroke:black;stroke-width:3px;"/>
                </g>
            </g>
        </g>
    </g>
</svg>
